<svg xmlns="http://www.w3.org/2000/svg" width="1240" height="1240" viewBox="0 0 1240 1240"><rect x="402.0" y="142.0" width="36.0" height="36.0" fill="#5e7355"/><rect x="442.0" y="142.0" width="36.0" height="36.0" fill="#6f855f"/><rect x="482.0" y="142.0" width="36.0" height="36.0" fill="#5e7355"/><rect x="522.0" y="142.0" width="36.0" height="36.0" fill="#8aa072"/><rect x="562.0" y="142.0" width="36.0" height="36.0" fill="#3f4f39"/><rect x="602.0" y="142.0" width="36.0" height="36.0" fill="#5e7355"/><rect x="642.0" y="142.0" width="36.0" height="36.0" fill="#6f855f"/><rect x="682.0" y="142.0" width="36.0" height="36.0" fill="#5e7355"/><rect x="722.0" y="142.0" width="36.0" height="36.0" fill="#6f855f"/><rect x="762.0" y="142.0" width="36.0" height="36.0" fill="#8aa072"/><rect x="802.0" y="142.0" width="36.0" height="36.0" fill="#5e7355"/><rect x="842.0" y="142.0" width="36.0" height="36.0" fill="#6f855f"/><rect x="882.0" y="142.0" width="36.0" height="36.0" fill="#5e7355"/><rect x="922.0" y="142.0" width="36.0" height="36.0" fill="#6f855f"/><rect x="962.0" y="142.0" width="36.0" height="36.0" fill="#5e7355"/><rect x="242.0" y="182.0" width="36.0" height="36.0" fill="#5e7355"/><rect x="282.0" y="182.0" width="36.0" height="36.0" fill="#3f4f39"/><rect x="322.0" y="182.0" width="36.0" height="36.0" fill="#5e7355"/><rect x="362.0" y="182.0" width="36.0" height="36.0" fill="#6f855f"/><rect x="402.0" y="182.0" width="36.0" height="36.0" fill="#8aa072"/><rect x="442.0" y="182.0" width="36.0" height="36.0" fill="#5e7355"/><rect x="482.0" y="182.0" width="36.0" height="36.0" fill="#6f855f"/><rect x="522.0" y="182.0" width="36.0" height="36.0" fill="#5e7355"/><rect x="562.0" y="182.0" width="36.0" height="36.0" fill="#6f855f"/><rect x="602.0" y="182.0" width="36.0" height="36.0" fill="#5e7355"/><rect x="642.0" y="182.0" width="36.0" height="36.0" fill="#8aa072"/><rect x="682.0" y="182.0" width="36.0" height="36.0" fill="#6f855f"/><rect x="722.0" y="182.0" width="36.0" height="36.0" fill="#5e7355"/><rect x="762.0" y="182.0" width="36.0" height="36.0" fill="#6f855f"/><rect x="802.0" y="182.0" width="36.0" height="36.0" fill="#3f4f39"/><rect x="842.0" y="182.0" width="36.0" height="36.0" fill="#5e7355"/><rect x="882.0" y="182.0" width="36.0" height="36.0" fill="#8aa072"/><rect x="922.0" y="182.0" width="36.0" height="36.0" fill="#5e7355"/><rect x="962.0" y="182.0" width="36.0" height="36.0" fill="#6f855f"/><rect x="1002.0" y="182.0" width="36.0" height="36.0" fill="#5e7355"/><rect x="1042.0" y="182.0" width="36.0" height="36.0" fill="#5e7355"/><rect x="162.0" y="222.0" width="36.0" height="36.0" fill="#5e7355"/><rect x="202.0" y="222.0" width="36.0" height="36.0" fill="#6f855f"/><rect x="242.0" y="222.0" width="36.0" height="36.0" fill="#5e7355"/><rect x="282.0" y="222.0" width="36.0" height="36.0" fill="#8aa072"/><rect x="322.0" y="222.0" width="36.0" height="36.0" fill="#6f855f"/><rect x="362.0" y="222.0" width="36.0" height="36.0" fill="#5e7355"/><rect x="402.0" y="222.0" width="36.0" height="36.0" fill="#6f855f"/><rect x="442.0" y="222.0" width="36.0" height="36.0" fill="#5e7355"/><rect x="482.0" y="222.0" width="36.0" height="36.0" fill="#5e7355"/><rect x="522.0" y="222.0" width="36.0" height="36.0" fill="#3f4f39"/><rect x="562.0" y="222.0" width="36.0" height="36.0" fill="#5e7355"/><rect x="602.0" y="222.0" width="36.0" height="36.0" fill="#6f855f"/><rect x="642.0" y="222.0" width="36.0" height="36.0" fill="#5e7355"/><rect x="682.0" y="222.0" width="36.0" height="36.0" fill="#5e7355"/><rect x="722.0" y="222.0" width="36.0" height="36.0" fill="#6f855f"/><rect x="762.0" y="222.0" width="36.0" height="36.0" fill="#8aa072"/><rect x="802.0" y="222.0" width="36.0" height="36.0" fill="#6f855f"/><rect x="842.0" y="222.0" width="36.0" height="36.0" fill="#5e7355"/><rect x="882.0" y="222.0" width="36.0" height="36.0" fill="#5e7355"/><rect x="922.0" y="222.0" width="36.0" height="36.0" fill="#6f855f"/><rect x="962.0" y="222.0" width="36.0" height="36.0" fill="#5e7355"/><rect x="1002.0" y="222.0" width="36.0" height="36.0" fill="#8aa072"/><rect x="1042.0" y="222.0" width="36.0" height="36.0" fill="#3f4f39"/><rect x="1082.0" y="222.0" width="36.0" height="36.0" fill="#5e7355"/><rect x="122.0" y="262.0" width="36.0" height="36.0" fill="#5e7355"/><rect x="162.0" y="262.0" width="36.0" height="36.0" fill="#8aa072"/><rect x="202.0" y="262.0" width="36.0" height="36.0" fill="#5e7355"/><rect x="242.0" y="262.0" width="36.0" height="36.0" fill="#3f4f39"/><rect x="282.0" y="262.0" width="36.0" height="36.0" fill="#5e7355"/><rect x="322.0" y="262.0" width="36.0" height="36.0" fill="#5e7355"/><rect x="362.0" y="262.0" width="36.0" height="36.0" fill="#6f855f"/><rect x="402.0" y="262.0" width="36.0" height="36.0" fill="#8aa072"/><rect x="442.0" y="262.0" width="36.0" height="36.0" fill="#6f855f"/><rect x="482.0" y="262.0" width="36.0" height="36.0" fill="#5e7355"/><rect x="522.0" y="262.0" width="36.0" height="36.0" fill="#5e7355"/><rect x="562.0" y="262.0" width="36.0" height="36.0" fill="#6f855f"/><rect x="602.0" y="262.0" width="36.0" height="36.0" fill="#5e7355"/><rect x="642.0" y="262.0" width="36.0" height="36.0" fill="#8aa072"/><rect x="682.0" y="262.0" width="36.0" height="36.0" fill="#5e7355"/><rect x="722.0" y="262.0" width="36.0" height="36.0" fill="#5e7355"/><rect x="762.0" y="262.0" width="36.0" height="36.0" fill="#3f4f39"/><rect x="802.0" y="262.0" width="36.0" height="36.0" fill="#5e7355"/><rect x="842.0" y="262.0" width="36.0" height="36.0" fill="#6f855f"/><rect x="882.0" y="262.0" width="36.0" height="36.0" fill="#8aa072"/><rect x="922.0" y="262.0" width="36.0" height="36.0" fill="#5e7355"/><rect x="962.0" y="262.0" width="36.0" height="36.0" fill="#6f855f"/><rect x="1002.0" y="262.0" width="36.0" height="36.0" fill="#5e7355"/><rect x="1042.0" y="262.0" width="36.0" height="36.0" fill="#6f855f"/><rect x="1082.0" y="262.0" width="36.0" height="36.0" fill="#5e7355"/><rect x="1122.0" y="262.0" width="36.0" height="36.0" fill="#8aa072"/><rect x="42.0" y="302.0" width="36.0" height="36.0" fill="#8aa072"/><rect x="82.0" y="302.0" width="36.0" height="36.0" fill="#6f855f"/><rect x="122.0" y="302.0" width="36.0" height="36.0" fill="#5e7355"/><rect x="162.0" y="302.0" width="36.0" height="36.0" fill="#5e7355"/><rect x="202.0" y="302.0" width="36.0" height="36.0" fill="#6f855f"/><rect x="242.0" y="302.0" width="36.0" height="36.0" fill="#5e7355"/><rect x="282.0" y="302.0" width="36.0" height="36.0" fill="#8aa072"/><rect x="322.0" y="302.0" width="36.0" height="36.0" fill="#5e7355"/><rect x="362.0" y="302.0" width="36.0" height="36.0" fill="#5e7355"/><rect x="402.0" y="302.0" width="36.0" height="36.0" fill="#6f855f"/><rect x="442.0" y="302.0" width="36.0" height="36.0" fill="#5e7355"/><rect x="482.0" y="302.0" width="36.0" height="36.0" fill="#3f4f39"/><rect x="522.0" y="302.0" width="36.0" height="36.0" fill="#8aa072"/><rect x="562.0" y="302.0" width="36.0" height="36.0" fill="#5e7355"/><rect x="602.0" y="302.0" width="36.0" height="36.0" fill="#6f855f"/><rect x="642.0" y="302.0" width="36.0" height="36.0" fill="#5e7355"/><rect x="682.0" y="302.0" width="36.0" height="36.0" fill="#6f855f"/><rect x="722.0" y="302.0" width="36.0" height="36.0" fill="#5e7355"/><rect x="762.0" y="302.0" width="36.0" height="36.0" fill="#8aa072"/><rect x="802.0" y="302.0" width="36.0" height="36.0" fill="#6f855f"/><rect x="842.0" y="302.0" width="36.0" height="36.0" fill="#5e7355"/><rect x="882.0" y="302.0" width="36.0" height="36.0" fill="#6f855f"/><rect x="922.0" y="302.0" width="36.0" height="36.0" fill="#5e7355"/><rect x="962.0" y="302.0" width="36.0" height="36.0" fill="#5e7355"/><rect x="1002.0" y="302.0" width="36.0" height="36.0" fill="#3f4f39"/><rect x="1042.0" y="302.0" width="36.0" height="36.0" fill="#5e7355"/><rect x="1082.0" y="302.0" width="36.0" height="36.0" fill="#6f855f"/><rect x="1122.0" y="302.0" width="36.0" height="36.0" fill="#5e7355"/><rect x="42.0" y="342.0" width="36.0" height="36.0" fill="#6f855f"/><rect x="82.0" y="342.0" width="36.0" height="36.0" fill="#5e7355"/><rect x="122.0" y="342.0" width="36.0" height="36.0" fill="#6f855f"/><rect x="162.0" y="342.0" width="36.0" height="36.0" fill="#8aa072"/><rect x="202.0" y="342.0" width="36.0" height="36.0" fill="#3f4f39"/><rect x="242.0" y="342.0" width="36.0" height="36.0" fill="#6f855f"/><rect x="282.0" y="342.0" width="36.0" height="36.0" fill="#5e7355"/><rect x="322.0" y="342.0" width="36.0" height="36.0" fill="#6f855f"/><rect x="362.0" y="342.0" width="36.0" height="36.0" fill="#5e7355"/><rect x="402.0" y="342.0" width="36.0" height="36.0" fill="#8aa072"/><rect x="442.0" y="342.0" width="36.0" height="36.0" fill="#6f855f"/><rect x="482.0" y="342.0" width="36.0" height="36.0" fill="#5e7355"/><rect x="522.0" y="342.0" width="36.0" height="36.0" fill="#6f855f"/><rect x="562.0" y="342.0" width="36.0" height="36.0" fill="#5e7355"/><rect x="602.0" y="342.0" width="36.0" height="36.0" fill="#5e7355"/><rect x="642.0" y="342.0" width="36.0" height="36.0" fill="#8aa072"/><rect x="682.0" y="342.0" width="36.0" height="36.0" fill="#5e7355"/><rect x="722.0" y="342.0" width="36.0" height="36.0" fill="#3f4f39"/><rect x="762.0" y="342.0" width="36.0" height="36.0" fill="#5e7355"/><rect x="802.0" y="342.0" width="36.0" height="36.0" fill="#5e7355"/><rect x="842.0" y="342.0" width="36.0" height="36.0" fill="#6f855f"/><rect x="882.0" y="342.0" width="36.0" height="36.0" fill="#8aa072"/><rect x="922.0" y="342.0" width="36.0" height="36.0" fill="#6f855f"/><rect x="962.0" y="342.0" width="36.0" height="36.0" fill="#5e7355"/><rect x="1002.0" y="342.0" width="36.0" height="36.0" fill="#5e7355"/><rect x="1042.0" y="342.0" width="36.0" height="36.0" fill="#6f855f"/><rect x="1082.0" y="342.0" width="36.0" height="36.0" fill="#5e7355"/><rect x="1122.0" y="342.0" width="36.0" height="36.0" fill="#8aa072"/><rect x="42.0" y="382.0" width="36.0" height="36.0" fill="#8aa072"/><rect x="82.0" y="382.0" width="36.0" height="36.0" fill="#6f855f"/><rect x="122.0" y="382.0" width="36.0" height="36.0" fill="#5e7355"/><rect x="162.0" y="382.0" width="36.0" height="36.0" fill="#6f855f"/><rect x="202.0" y="382.0" width="36.0" height="36.0" fill="#5e7355"/><rect x="242.0" y="382.0" width="36.0" height="36.0" fill="#5e7355"/><rect x="282.0" y="382.0" width="36.0" height="36.0" fill="#8aa072"/><rect x="322.0" y="382.0" width="36.0" height="36.0" fill="#5e7355"/><rect x="362.0" y="382.0" width="36.0" height="36.0" fill="#6f855f"/><rect x="402.0" y="382.0" width="36.0" height="36.0" fill="#5e7355"/><rect x="442.0" y="382.0" width="36.0" height="36.0" fill="#3f4f39"/><rect x="482.0" y="382.0" width="36.0" height="36.0" fill="#6f855f"/><rect x="522.0" y="382.0" width="36.0" height="36.0" fill="#8aa072"/><rect x="562.0" y="382.0" width="36.0" height="36.0" fill="#6f855f"/><rect x="602.0" y="382.0" width="36.0" height="36.0" fill="#5e7355"/><rect x="642.0" y="382.0" width="36.0" height="36.0" fill="#5a3f29"/><rect x="682.0" y="382.0" width="36.0" height="36.0" fill="#5a3f29"/><rect x="722.0" y="382.0" width="36.0" height="36.0" fill="#7a5536"/><rect x="762.0" y="382.0" width="36.0" height="36.0" fill="#8aa072"/><rect x="802.0" y="382.0" width="36.0" height="36.0" fill="#5e7355"/><rect x="842.0" y="382.0" width="36.0" height="36.0" fill="#5e7355"/><rect x="882.0" y="382.0" width="36.0" height="36.0" fill="#6f855f"/><rect x="922.0" y="382.0" width="36.0" height="36.0" fill="#5e7355"/><rect x="962.0" y="382.0" width="36.0" height="36.0" fill="#3f4f39"/><rect x="1002.0" y="382.0" width="36.0" height="36.0" fill="#8aa072"/><rect x="1042.0" y="382.0" width="36.0" height="36.0" fill="#5e7355"/><rect x="1082.0" y="382.0" width="36.0" height="36.0" fill="#6f855f"/><rect x="1122.0" y="382.0" width="36.0" height="36.0" fill="#5e7355"/><rect x="42.0" y="422.0" width="36.0" height="36.0" fill="#5e7355"/><rect x="82.0" y="422.0" width="36.0" height="36.0" fill="#5e7355"/><rect x="122.0" y="422.0" width="36.0" height="36.0" fill="#6f855f"/><rect x="162.0" y="422.0" width="36.0" height="36.0" fill="#3f4f39"/><rect x="202.0" y="422.0" width="36.0" height="36.0" fill="#6f855f"/><rect x="242.0" y="422.0" width="36.0" height="36.0" fill="#5e7355"/><rect x="282.0" y="422.0" width="36.0" height="36.0" fill="#5e7355"/><rect x="322.0" y="422.0" width="36.0" height="36.0" fill="#6f855f"/><rect x="362.0" y="422.0" width="36.0" height="36.0" fill="#5e7355"/><rect x="402.0" y="422.0" width="36.0" height="36.0" fill="#8aa072"/><rect x="442.0" y="422.0" width="36.0" height="36.0" fill="#5e7355"/><rect x="482.0" y="422.0" width="36.0" height="36.0" fill="#5e7355"/><rect x="522.0" y="422.0" width="36.0" height="36.0" fill="#6f855f"/><rect x="562.0" y="422.0" width="36.0" height="36.0" fill="#5e7355"/><rect x="602.0" y="422.0" width="36.0" height="36.0" fill="#6f855f"/><rect x="642.0" y="422.0" width="36.0" height="36.0" fill="#5a3f29"/><rect x="682.0" y="422.0" width="36.0" height="36.0" fill="#5a3f29"/><rect x="722.0" y="422.0" width="36.0" height="36.0" fill="#7a5536"/><rect x="762.0" y="422.0" width="36.0" height="36.0" fill="#5e7355"/><rect x="802.0" y="422.0" width="36.0" height="36.0" fill="#6f855f"/><rect x="842.0" y="422.0" width="36.0" height="36.0" fill="#5e7355"/><rect x="882.0" y="422.0" width="36.0" height="36.0" fill="#8aa072"/><rect x="922.0" y="422.0" width="36.0" height="36.0" fill="#6f855f"/><rect x="962.0" y="422.0" width="36.0" height="36.0" fill="#5e7355"/><rect x="1002.0" y="422.0" width="36.0" height="36.0" fill="#6f855f"/><rect x="1042.0" y="422.0" width="36.0" height="36.0" fill="#5e7355"/><rect x="1082.0" y="422.0" width="36.0" height="36.0" fill="#5e7355"/><rect x="1122.0" y="422.0" width="36.0" height="36.0" fill="#8aa072"/><rect x="42.0" y="462.0" width="36.0" height="36.0" fill="#8aa072"/><rect x="82.0" y="462.0" width="36.0" height="36.0" fill="#5e7355"/><rect x="122.0" y="462.0" width="36.0" height="36.0" fill="#5e7355"/><rect x="162.0" y="462.0" width="36.0" height="36.0" fill="#6f855f"/><rect x="202.0" y="462.0" width="36.0" height="36.0" fill="#5e7355"/><rect x="242.0" y="462.0" width="36.0" height="36.0" fill="#6f855f"/><rect x="282.0" y="462.0" width="36.0" height="36.0" fill="#8aa072"/><rect x="322.0" y="462.0" width="36.0" height="36.0" fill="#5e7355"/><rect x="362.0" y="462.0" width="36.0" height="36.0" fill="#6f855f"/><rect x="402.0" y="462.0" width="36.0" height="36.0" fill="#3f4f39"/><rect x="442.0" y="462.0" width="36.0" height="36.0" fill="#6f855f"/><rect x="482.0" y="462.0" width="36.0" height="36.0" fill="#5e7355"/><rect x="522.0" y="462.0" width="36.0" height="36.0" fill="#8aa072"/><rect x="562.0" y="462.0" width="36.0" height="36.0" fill="#6f855f"/><rect x="602.0" y="462.0" width="36.0" height="36.0" fill="#5e7355"/><rect x="642.0" y="462.0" width="36.0" height="36.0" fill="#5a3f29"/><rect x="682.0" y="462.0" width="36.0" height="36.0" fill="#5a3f29"/><rect x="722.0" y="462.0" width="36.0" height="36.0" fill="#7a5536"/><rect x="762.0" y="462.0" width="36.0" height="36.0" fill="#8aa072"/><rect x="802.0" y="462.0" width="36.0" height="36.0" fill="#5e7355"/><rect x="842.0" y="462.0" width="36.0" height="36.0" fill="#6f855f"/><rect x="882.0" y="462.0" width="36.0" height="36.0" fill="#5e7355"/><rect x="922.0" y="462.0" width="36.0" height="36.0" fill="#3f4f39"/><rect x="962.0" y="462.0" width="36.0" height="36.0" fill="#6f855f"/><rect x="1002.0" y="462.0" width="36.0" height="36.0" fill="#8aa072"/><rect x="1042.0" y="462.0" width="36.0" height="36.0" fill="#6f855f"/><rect x="1082.0" y="462.0" width="36.0" height="36.0" fill="#5e7355"/><rect x="1122.0" y="462.0" width="36.0" height="36.0" fill="#5e7355"/><rect x="82.0" y="502.0" width="36.0" height="36.0" fill="#8aa072"/><rect x="122.0" y="502.0" width="36.0" height="36.0" fill="#8aa072"/><rect x="162.0" y="502.0" width="36.0" height="36.0" fill="#5e7355"/><rect x="202.0" y="502.0" width="36.0" height="36.0" fill="#5e7355"/><rect x="242.0" y="502.0" width="36.0" height="36.0" fill="#5e7355"/><rect x="282.0" y="502.0" width="36.0" height="36.0" fill="#5e7355"/><rect x="322.0" y="502.0" width="36.0" height="36.0" fill="#5e7355"/><rect x="362.0" y="502.0" width="36.0" height="36.0" fill="#5e7355"/><rect x="402.0" y="502.0" width="36.0" height="36.0" fill="#5e7355"/><rect x="442.0" y="502.0" width="36.0" height="36.0" fill="#5e7355"/><rect x="482.0" y="502.0" width="36.0" height="36.0" fill="#5e7355"/><rect x="522.0" y="502.0" width="36.0" height="36.0" fill="#5e7355"/><rect x="562.0" y="502.0" width="36.0" height="36.0" fill="#5e7355"/><rect x="602.0" y="502.0" width="36.0" height="36.0" fill="#5a3f29"/><rect x="642.0" y="502.0" width="36.0" height="36.0" fill="#5a3f29"/><rect x="682.0" y="502.0" width="36.0" height="36.0" fill="#7a5536"/><rect x="722.0" y="502.0" width="36.0" height="36.0" fill="#5e7355"/><rect x="762.0" y="502.0" width="36.0" height="36.0" fill="#5e7355"/><rect x="802.0" y="502.0" width="36.0" height="36.0" fill="#5e7355"/><rect x="842.0" y="502.0" width="36.0" height="36.0" fill="#5e7355"/><rect x="882.0" y="502.0" width="36.0" height="36.0" fill="#5e7355"/><rect x="922.0" y="502.0" width="36.0" height="36.0" fill="#5e7355"/><rect x="962.0" y="502.0" width="36.0" height="36.0" fill="#5e7355"/><rect x="1002.0" y="502.0" width="36.0" height="36.0" fill="#5e7355"/><rect x="1042.0" y="502.0" width="36.0" height="36.0" fill="#5e7355"/><rect x="1082.0" y="502.0" width="36.0" height="36.0" fill="#5e7355"/><rect x="1122.0" y="502.0" width="36.0" height="36.0" fill="#5e7355"/><rect x="1162.0" y="502.0" width="36.0" height="36.0" fill="#5e7355"/><rect x="82.0" y="542.0" width="36.0" height="36.0" fill="#8aa072"/><rect x="162.0" y="542.0" width="36.0" height="36.0" fill="#5e7355"/><rect x="202.0" y="542.0" width="36.0" height="36.0" fill="#5e7355"/><rect x="242.0" y="542.0" width="36.0" height="36.0" fill="#5e7355"/><rect x="282.0" y="542.0" width="36.0" height="36.0" fill="#8aa072"/><rect x="322.0" y="542.0" width="36.0" height="36.0" fill="#5e7355"/><rect x="362.0" y="542.0" width="36.0" height="36.0" fill="#5e7355"/><rect x="402.0" y="542.0" width="36.0" height="36.0" fill="#5e7355"/><rect x="442.0" y="542.0" width="36.0" height="36.0" fill="#5e7355"/><rect x="482.0" y="542.0" width="36.0" height="36.0" fill="#5e7355"/><rect x="522.0" y="542.0" width="36.0" height="36.0" fill="#5e7355"/><rect x="562.0" y="542.0" width="36.0" height="36.0" fill="#5e7355"/><rect x="602.0" y="542.0" width="36.0" height="36.0" fill="#5a3f29"/><rect x="642.0" y="542.0" width="36.0" height="36.0" fill="#5a3f29"/><rect x="682.0" y="542.0" width="36.0" height="36.0" fill="#7a5536"/><rect x="722.0" y="542.0" width="36.0" height="36.0" fill="#5e7355"/><rect x="762.0" y="542.0" width="36.0" height="36.0" fill="#5e7355"/><rect x="802.0" y="542.0" width="36.0" height="36.0" fill="#5e7355"/><rect x="842.0" y="542.0" width="36.0" height="36.0" fill="#5e7355"/><rect x="882.0" y="542.0" width="36.0" height="36.0" fill="#5e7355"/><rect x="922.0" y="542.0" width="36.0" height="36.0" fill="#5e7355"/><rect x="962.0" y="542.0" width="36.0" height="36.0" fill="#5e7355"/><rect x="1002.0" y="542.0" width="36.0" height="36.0" fill="#5e7355"/><rect x="1042.0" y="542.0" width="36.0" height="36.0" fill="#5e7355"/><rect x="1082.0" y="542.0" width="36.0" height="36.0" fill="#5e7355"/><rect x="1122.0" y="542.0" width="36.0" height="36.0" fill="#5e7355"/><rect x="1162.0" y="542.0" width="36.0" height="36.0" fill="#8aa072"/><rect x="202.0" y="582.0" width="36.0" height="36.0" fill="#8aa072"/><rect x="242.0" y="582.0" width="36.0" height="36.0" fill="#6f855f"/><rect x="282.0" y="582.0" width="36.0" height="36.0" fill="#6f855f"/><rect x="322.0" y="582.0" width="36.0" height="36.0" fill="#8aa072"/><rect x="362.0" y="582.0" width="36.0" height="36.0" fill="#6f855f"/><rect x="402.0" y="582.0" width="36.0" height="36.0" fill="#6f855f"/><rect x="442.0" y="582.0" width="36.0" height="36.0" fill="#6f855f"/><rect x="482.0" y="582.0" width="36.0" height="36.0" fill="#6f855f"/><rect x="522.0" y="582.0" width="36.0" height="36.0" fill="#6f855f"/><rect x="562.0" y="582.0" width="36.0" height="36.0" fill="#6f855f"/><rect x="602.0" y="582.0" width="36.0" height="36.0" fill="#5a3f29"/><rect x="642.0" y="582.0" width="36.0" height="36.0" fill="#5a3f29"/><rect x="682.0" y="582.0" width="36.0" height="36.0" fill="#7a5536"/><rect x="722.0" y="582.0" width="36.0" height="36.0" fill="#6f855f"/><rect x="762.0" y="582.0" width="36.0" height="36.0" fill="#6f855f"/><rect x="802.0" y="582.0" width="36.0" height="36.0" fill="#6f855f"/><rect x="842.0" y="582.0" width="36.0" height="36.0" fill="#6f855f"/><rect x="882.0" y="582.0" width="36.0" height="36.0" fill="#6f855f"/><rect x="922.0" y="582.0" width="36.0" height="36.0" fill="#6f855f"/><rect x="962.0" y="582.0" width="36.0" height="36.0" fill="#6f855f"/><rect x="1002.0" y="582.0" width="36.0" height="36.0" fill="#6f855f"/><rect x="1042.0" y="582.0" width="36.0" height="36.0" fill="#6f855f"/><rect x="1082.0" y="582.0" width="36.0" height="36.0" fill="#6f855f"/><rect x="1122.0" y="582.0" width="36.0" height="36.0" fill="#8aa072"/><rect x="1162.0" y="582.0" width="36.0" height="36.0" fill="#6f855f"/><rect x="202.0" y="622.0" width="36.0" height="36.0" fill="#8aa072"/><rect x="242.0" y="622.0" width="36.0" height="36.0" fill="#8aa072"/><rect x="282.0" y="622.0" width="36.0" height="36.0" fill="#8aa072"/><rect x="362.0" y="622.0" width="36.0" height="36.0" fill="#5e7355"/><rect x="402.0" y="622.0" width="36.0" height="36.0" fill="#5e7355"/><rect x="442.0" y="622.0" width="36.0" height="36.0" fill="#5e7355"/><rect x="482.0" y="622.0" width="36.0" height="36.0" fill="#8aa072"/><rect x="522.0" y="622.0" width="36.0" height="36.0" fill="#5e7355"/><rect x="562.0" y="622.0" width="36.0" height="36.0" fill="#5e7355"/><rect x="602.0" y="622.0" width="36.0" height="36.0" fill="#5a3f29"/><rect x="642.0" y="622.0" width="36.0" height="36.0" fill="#5a3f29"/><rect x="682.0" y="622.0" width="36.0" height="36.0" fill="#7a5536"/><rect x="722.0" y="622.0" width="36.0" height="36.0" fill="#5e7355"/><rect x="762.0" y="622.0" width="36.0" height="36.0" fill="#5e7355"/><rect x="802.0" y="622.0" width="36.0" height="36.0" fill="#5e7355"/><rect x="842.0" y="622.0" width="36.0" height="36.0" fill="#5e7355"/><rect x="882.0" y="622.0" width="36.0" height="36.0" fill="#5e7355"/><rect x="922.0" y="622.0" width="36.0" height="36.0" fill="#5e7355"/><rect x="962.0" y="622.0" width="36.0" height="36.0" fill="#5e7355"/><rect x="1002.0" y="622.0" width="36.0" height="36.0" fill="#5e7355"/><rect x="1042.0" y="622.0" width="36.0" height="36.0" fill="#5e7355"/><rect x="1082.0" y="622.0" width="36.0" height="36.0" fill="#5e7355"/><rect x="1122.0" y="622.0" width="36.0" height="36.0" fill="#8aa072"/><rect x="1162.0" y="622.0" width="36.0" height="36.0" fill="#5e7355"/><rect x="282.0" y="662.0" width="36.0" height="36.0" fill="#8aa072"/><rect x="322.0" y="662.0" width="36.0" height="36.0" fill="#8aa072"/><rect x="402.0" y="662.0" width="36.0" height="36.0" fill="#5e7355"/><rect x="442.0" y="662.0" width="36.0" height="36.0" fill="#5e7355"/><rect x="482.0" y="662.0" width="36.0" height="36.0" fill="#5e7355"/><rect x="522.0" y="662.0" width="36.0" height="36.0" fill="#8aa072"/><rect x="562.0" y="662.0" width="36.0" height="36.0" fill="#5e7355"/><rect x="602.0" y="662.0" width="36.0" height="36.0" fill="#5a3f29"/><rect x="642.0" y="662.0" width="36.0" height="36.0" fill="#5a3f29"/><rect x="682.0" y="662.0" width="36.0" height="36.0" fill="#7a5536"/><rect x="722.0" y="662.0" width="36.0" height="36.0" fill="#5e7355"/><rect x="762.0" y="662.0" width="36.0" height="36.0" fill="#5e7355"/><rect x="802.0" y="662.0" width="36.0" height="36.0" fill="#5e7355"/><rect x="842.0" y="662.0" width="36.0" height="36.0" fill="#5e7355"/><rect x="882.0" y="662.0" width="36.0" height="36.0" fill="#5e7355"/><rect x="922.0" y="662.0" width="36.0" height="36.0" fill="#5e7355"/><rect x="962.0" y="662.0" width="36.0" height="36.0" fill="#5e7355"/><rect x="1002.0" y="662.0" width="36.0" height="36.0" fill="#5e7355"/><rect x="1042.0" y="662.0" width="36.0" height="36.0" fill="#5e7355"/><rect x="1082.0" y="662.0" width="36.0" height="36.0" fill="#5e7355"/><rect x="1122.0" y="662.0" width="36.0" height="36.0" fill="#5e7355"/><rect x="402.0" y="702.0" width="36.0" height="36.0" fill="#8aa072"/><rect x="442.0" y="702.0" width="36.0" height="36.0" fill="#8aa072"/><rect x="482.0" y="702.0" width="36.0" height="36.0" fill="#6f855f"/><rect x="562.0" y="702.0" width="36.0" height="36.0" fill="#5a3f29"/><rect x="602.0" y="702.0" width="36.0" height="36.0" fill="#5a3f29"/><rect x="642.0" y="702.0" width="36.0" height="36.0" fill="#7a5536"/><rect x="682.0" y="702.0" width="36.0" height="36.0" fill="#8aa072"/><rect x="722.0" y="702.0" width="36.0" height="36.0" fill="#6f855f"/><rect x="762.0" y="702.0" width="36.0" height="36.0" fill="#6f855f"/><rect x="802.0" y="702.0" width="36.0" height="36.0" fill="#6f855f"/><rect x="842.0" y="702.0" width="36.0" height="36.0" fill="#6f855f"/><rect x="882.0" y="702.0" width="36.0" height="36.0" fill="#6f855f"/><rect x="922.0" y="702.0" width="36.0" height="36.0" fill="#6f855f"/><rect x="962.0" y="702.0" width="36.0" height="36.0" fill="#6f855f"/><rect x="1002.0" y="702.0" width="36.0" height="36.0" fill="#8aa072"/><rect x="1042.0" y="702.0" width="36.0" height="36.0" fill="#6f855f"/><rect x="1082.0" y="702.0" width="36.0" height="36.0" fill="#6f855f"/><rect x="1122.0" y="702.0" width="36.0" height="36.0" fill="#6f855f"/><rect x="442.0" y="742.0" width="36.0" height="36.0" fill="#8aa072"/><rect x="482.0" y="742.0" width="36.0" height="36.0" fill="#8aa072"/><rect x="522.0" y="742.0" width="36.0" height="36.0" fill="#8aa072"/><rect x="562.0" y="742.0" width="36.0" height="36.0" fill="#5a3f29"/><rect x="602.0" y="742.0" width="36.0" height="36.0" fill="#5a3f29"/><rect x="642.0" y="742.0" width="36.0" height="36.0" fill="#7a5536"/><rect x="682.0" y="742.0" width="36.0" height="36.0" fill="#5e7355"/><rect x="722.0" y="742.0" width="36.0" height="36.0" fill="#8aa072"/><rect x="762.0" y="742.0" width="36.0" height="36.0" fill="#5e7355"/><rect x="802.0" y="742.0" width="36.0" height="36.0" fill="#5e7355"/><rect x="842.0" y="742.0" width="36.0" height="36.0" fill="#5e7355"/><rect x="882.0" y="742.0" width="36.0" height="36.0" fill="#8aa072"/><rect x="922.0" y="742.0" width="36.0" height="36.0" fill="#5e7355"/><rect x="962.0" y="742.0" width="36.0" height="36.0" fill="#5e7355"/><rect x="1002.0" y="742.0" width="36.0" height="36.0" fill="#5e7355"/><rect x="1042.0" y="742.0" width="36.0" height="36.0" fill="#8aa072"/><rect x="1082.0" y="742.0" width="36.0" height="36.0" fill="#5e7355"/><rect x="1122.0" y="742.0" width="36.0" height="36.0" fill="#5e7355"/><rect x="1162.0" y="742.0" width="36.0" height="36.0" fill="#8aa072"/><rect x="522.0" y="782.0" width="36.0" height="36.0" fill="#8aa072"/><rect x="562.0" y="782.0" width="36.0" height="36.0" fill="#5a3f29"/><rect x="602.0" y="782.0" width="36.0" height="36.0" fill="#5a3f29"/><rect x="642.0" y="782.0" width="36.0" height="36.0" fill="#7a5536"/><rect x="682.0" y="782.0" width="36.0" height="36.0" fill="#5e7355"/><rect x="762.0" y="782.0" width="36.0" height="36.0" fill="#5e7355"/><rect x="802.0" y="782.0" width="36.0" height="36.0" fill="#5e7355"/><rect x="842.0" y="782.0" width="36.0" height="36.0" fill="#5e7355"/><rect x="882.0" y="782.0" width="36.0" height="36.0" fill="#8aa072"/><rect x="922.0" y="782.0" width="36.0" height="36.0" fill="#5e7355"/><rect x="962.0" y="782.0" width="36.0" height="36.0" fill="#5e7355"/><rect x="1002.0" y="782.0" width="36.0" height="36.0" fill="#5e7355"/><rect x="1082.0" y="782.0" width="36.0" height="36.0" fill="#5e7355"/><rect x="1122.0" y="782.0" width="36.0" height="36.0" fill="#8aa072"/><rect x="1162.0" y="782.0" width="36.0" height="36.0" fill="#8aa072"/><rect x="562.0" y="822.0" width="36.0" height="36.0" fill="#5a3f29"/><rect x="602.0" y="822.0" width="36.0" height="36.0" fill="#5a3f29"/><rect x="642.0" y="822.0" width="36.0" height="36.0" fill="#7a5536"/><rect x="682.0" y="822.0" width="36.0" height="36.0" fill="#8aa072"/><rect x="722.0" y="822.0" width="36.0" height="36.0" fill="#8aa072"/><rect x="802.0" y="822.0" width="36.0" height="36.0" fill="#8aa072"/><rect x="842.0" y="822.0" width="36.0" height="36.0" fill="#8aa072"/><rect x="882.0" y="822.0" width="36.0" height="36.0" fill="#6f855f"/><rect x="962.0" y="822.0" width="36.0" height="36.0" fill="#6f855f"/><rect x="1002.0" y="822.0" width="36.0" height="36.0" fill="#6f855f"/><rect x="1042.0" y="822.0" width="36.0" height="36.0" fill="#8aa072"/><rect x="1122.0" y="822.0" width="36.0" height="36.0" fill="#8aa072"/><rect x="1162.0" y="822.0" width="36.0" height="36.0" fill="#8aa072"/><rect x="562.0" y="862.0" width="36.0" height="36.0" fill="#5a3f29"/><rect x="602.0" y="862.0" width="36.0" height="36.0" fill="#5a3f29"/><rect x="642.0" y="862.0" width="36.0" height="36.0" fill="#7a5536"/><rect x="762.0" y="862.0" width="36.0" height="36.0" fill="#8aa072"/><rect x="842.0" y="862.0" width="36.0" height="36.0" fill="#8aa072"/><rect x="882.0" y="862.0" width="36.0" height="36.0" fill="#8aa072"/><rect x="922.0" y="862.0" width="36.0" height="36.0" fill="#8aa072"/><rect x="1002.0" y="862.0" width="36.0" height="36.0" fill="#8aa072"/><rect x="1042.0" y="862.0" width="36.0" height="36.0" fill="#8aa072"/><rect x="1082.0" y="862.0" width="36.0" height="36.0" fill="#8aa072"/><rect x="1162.0" y="862.0" width="36.0" height="36.0" fill="#8aa072"/><rect x="562.0" y="902.0" width="36.0" height="36.0" fill="#5a3f29"/><rect x="602.0" y="902.0" width="36.0" height="36.0" fill="#5a3f29"/><rect x="642.0" y="902.0" width="36.0" height="36.0" fill="#7a5536"/><rect x="922.0" y="902.0" width="36.0" height="36.0" fill="#8aa072"/><rect x="1002.0" y="902.0" width="36.0" height="36.0" fill="#8aa072"/><rect x="1042.0" y="902.0" width="36.0" height="36.0" fill="#8aa072"/><rect x="522.0" y="942.0" width="36.0" height="36.0" fill="#5a3f29"/><rect x="562.0" y="942.0" width="36.0" height="36.0" fill="#5a3f29"/><rect x="602.0" y="942.0" width="36.0" height="36.0" fill="#7a5536"/><rect x="522.0" y="982.0" width="36.0" height="36.0" fill="#5a3f29"/><rect x="562.0" y="982.0" width="36.0" height="36.0" fill="#5a3f29"/><rect x="602.0" y="982.0" width="36.0" height="36.0" fill="#7a5536"/><rect x="522.0" y="1022.0" width="36.0" height="36.0" fill="#5a3f29"/><rect x="562.0" y="1022.0" width="36.0" height="36.0" fill="#5a3f29"/><rect x="602.0" y="1022.0" width="36.0" height="36.0" fill="#7a5536"/><rect x="442.0" y="1062.0" width="36.0" height="36.0" fill="#5a3f29"/><rect x="482.0" y="1062.0" width="36.0" height="36.0" fill="#7a5536"/><rect x="522.0" y="1062.0" width="36.0" height="36.0" fill="#5a3f29"/><rect x="562.0" y="1062.0" width="36.0" height="36.0" fill="#7a5536"/><rect x="602.0" y="1062.0" width="36.0" height="36.0" fill="#5a3f29"/><rect x="642.0" y="1062.0" width="36.0" height="36.0" fill="#7a5536"/><rect x="682.0" y="1062.0" width="36.0" height="36.0" fill="#5a3f29"/></svg>