<svg xmlns="http://www.w3.org/2000/svg" width="624" height="624" viewBox="0 0 624 624"><rect x="534.0" y="14.0" width="36.0" height="36.0" fill="#5e7355"/><rect x="574.0" y="14.0" width="36.0" height="36.0" fill="#46583f"/><rect x="454.0" y="54.0" width="36.0" height="36.0" fill="#5e7355"/><rect x="494.0" y="54.0" width="36.0" height="36.0" fill="#5e7355"/><rect x="534.0" y="54.0" width="36.0" height="36.0" fill="#46583f"/><rect x="574.0" y="54.0" width="36.0" height="36.0" fill="#5e7355"/><rect x="374.0" y="94.0" width="36.0" height="36.0" fill="#5e7355"/><rect x="414.0" y="94.0" width="36.0" height="36.0" fill="#5e7355"/><rect x="454.0" y="94.0" width="36.0" height="36.0" fill="#5e7355"/><rect x="494.0" y="94.0" width="36.0" height="36.0" fill="#46583f"/><rect x="534.0" y="94.0" width="36.0" height="36.0" fill="#5e7355"/><rect x="334.0" y="134.0" width="36.0" height="36.0" fill="#5e7355"/><rect x="374.0" y="134.0" width="36.0" height="36.0" fill="#5e7355"/><rect x="414.0" y="134.0" width="36.0" height="36.0" fill="#5e7355"/><rect x="454.0" y="134.0" width="36.0" height="36.0" fill="#46583f"/><rect x="494.0" y="134.0" width="36.0" height="36.0" fill="#5e7355"/><rect x="534.0" y="134.0" width="36.0" height="36.0" fill="#5e7355"/><rect x="294.0" y="174.0" width="36.0" height="36.0" fill="#5e7355"/><rect x="334.0" y="174.0" width="36.0" height="36.0" fill="#5e7355"/><rect x="374.0" y="174.0" width="36.0" height="36.0" fill="#5e7355"/><rect x="414.0" y="174.0" width="36.0" height="36.0" fill="#46583f"/><rect x="454.0" y="174.0" width="36.0" height="36.0" fill="#5e7355"/><rect x="494.0" y="174.0" width="36.0" height="36.0" fill="#5e7355"/><rect x="254.0" y="214.0" width="36.0" height="36.0" fill="#5e7355"/><rect x="294.0" y="214.0" width="36.0" height="36.0" fill="#5e7355"/><rect x="334.0" y="214.0" width="36.0" height="36.0" fill="#5e7355"/><rect x="374.0" y="214.0" width="36.0" height="36.0" fill="#46583f"/><rect x="414.0" y="214.0" width="36.0" height="36.0" fill="#5e7355"/><rect x="454.0" y="214.0" width="36.0" height="36.0" fill="#5e7355"/><rect x="494.0" y="214.0" width="36.0" height="36.0" fill="#5e7355"/><rect x="214.0" y="254.0" width="36.0" height="36.0" fill="#5e7355"/><rect x="254.0" y="254.0" width="36.0" height="36.0" fill="#5e7355"/><rect x="294.0" y="254.0" width="36.0" height="36.0" fill="#5e7355"/><rect x="334.0" y="254.0" width="36.0" height="36.0" fill="#46583f"/><rect x="374.0" y="254.0" width="36.0" height="36.0" fill="#5e7355"/><rect x="414.0" y="254.0" width="36.0" height="36.0" fill="#5e7355"/><rect x="454.0" y="254.0" width="36.0" height="36.0" fill="#5e7355"/><rect x="214.0" y="294.0" width="36.0" height="36.0" fill="#5e7355"/><rect x="254.0" y="294.0" width="36.0" height="36.0" fill="#5e7355"/><rect x="294.0" y="294.0" width="36.0" height="36.0" fill="#46583f"/><rect x="334.0" y="294.0" width="36.0" height="36.0" fill="#5e7355"/><rect x="374.0" y="294.0" width="36.0" height="36.0" fill="#5e7355"/><rect x="414.0" y="294.0" width="36.0" height="36.0" fill="#5e7355"/><rect x="174.0" y="334.0" width="36.0" height="36.0" fill="#5e7355"/><rect x="214.0" y="334.0" width="36.0" height="36.0" fill="#5e7355"/><rect x="254.0" y="334.0" width="36.0" height="36.0" fill="#46583f"/><rect x="294.0" y="334.0" width="36.0" height="36.0" fill="#5e7355"/><rect x="334.0" y="334.0" width="36.0" height="36.0" fill="#5e7355"/><rect x="374.0" y="334.0" width="36.0" height="36.0" fill="#5e7355"/><rect x="174.0" y="374.0" width="36.0" height="36.0" fill="#5e7355"/><rect x="214.0" y="374.0" width="36.0" height="36.0" fill="#46583f"/><rect x="254.0" y="374.0" width="36.0" height="36.0" fill="#5e7355"/><rect x="294.0" y="374.0" width="36.0" height="36.0" fill="#5e7355"/><rect x="334.0" y="374.0" width="36.0" height="36.0" fill="#5e7355"/><rect x="134.0" y="414.0" width="36.0" height="36.0" fill="#5e7355"/><rect x="174.0" y="414.0" width="36.0" height="36.0" fill="#46583f"/><rect x="214.0" y="414.0" width="36.0" height="36.0" fill="#5e7355"/><rect x="254.0" y="414.0" width="36.0" height="36.0" fill="#5e7355"/><rect x="134.0" y="454.0" width="36.0" height="36.0" fill="#46583f"/><rect x="174.0" y="454.0" width="36.0" height="36.0" fill="#5e7355"/><rect x="94.0" y="494.0" width="36.0" height="36.0" fill="#9cae63"/><rect x="54.0" y="534.0" width="36.0" height="36.0" fill="#9cae63"/><rect x="14.0" y="574.0" width="36.0" height="36.0" fill="#9cae63"/></svg>