<svg xmlns="http://www.w3.org/2000/svg" width="1170" height="970" viewBox="0 0 1170 970"><rect x="366.8" y="6.8" width="36.0" height="36.0" fill="#5e7355"/><rect x="406.8" y="6.8" width="36.0" height="36.0" fill="#6f855f"/><rect x="446.8" y="6.8" width="36.0" height="36.0" fill="#5e7355"/><rect x="486.8" y="6.8" width="36.0" height="36.0" fill="#8aa072"/><rect x="526.8" y="6.8" width="36.0" height="36.0" fill="#3f4f39"/><rect x="566.8" y="6.8" width="36.0" height="36.0" fill="#5e7355"/><rect x="606.8" y="6.8" width="36.0" height="36.0" fill="#6f855f"/><rect x="646.8" y="6.8" width="36.0" height="36.0" fill="#5e7355"/><rect x="686.8" y="6.8" width="36.0" height="36.0" fill="#6f855f"/><rect x="726.8" y="6.8" width="36.0" height="36.0" fill="#8aa072"/><rect x="766.8" y="6.8" width="36.0" height="36.0" fill="#5e7355"/><rect x="806.8" y="6.8" width="36.0" height="36.0" fill="#6f855f"/><rect x="846.8" y="6.8" width="36.0" height="36.0" fill="#5e7355"/><rect x="886.8" y="6.8" width="36.0" height="36.0" fill="#6f855f"/><rect x="926.8" y="6.8" width="36.0" height="36.0" fill="#5e7355"/><rect x="206.8" y="46.8" width="36.0" height="36.0" fill="#5e7355"/><rect x="246.8" y="46.8" width="36.0" height="36.0" fill="#3f4f39"/><rect x="286.8" y="46.8" width="36.0" height="36.0" fill="#5e7355"/><rect x="326.8" y="46.8" width="36.0" height="36.0" fill="#6f855f"/><rect x="366.8" y="46.8" width="36.0" height="36.0" fill="#8aa072"/><rect x="406.8" y="46.8" width="36.0" height="36.0" fill="#5e7355"/><rect x="446.8" y="46.8" width="36.0" height="36.0" fill="#6f855f"/><rect x="486.8" y="46.8" width="36.0" height="36.0" fill="#5e7355"/><rect x="526.8" y="46.8" width="36.0" height="36.0" fill="#6f855f"/><rect x="566.8" y="46.8" width="36.0" height="36.0" fill="#5e7355"/><rect x="606.8" y="46.8" width="36.0" height="36.0" fill="#8aa072"/><rect x="646.8" y="46.8" width="36.0" height="36.0" fill="#6f855f"/><rect x="686.8" y="46.8" width="36.0" height="36.0" fill="#5e7355"/><rect x="726.8" y="46.8" width="36.0" height="36.0" fill="#6f855f"/><rect x="766.8" y="46.8" width="36.0" height="36.0" fill="#3f4f39"/><rect x="806.8" y="46.8" width="36.0" height="36.0" fill="#5e7355"/><rect x="846.8" y="46.8" width="36.0" height="36.0" fill="#8aa072"/><rect x="886.8" y="46.8" width="36.0" height="36.0" fill="#5e7355"/><rect x="926.8" y="46.8" width="36.0" height="36.0" fill="#6f855f"/><rect x="966.8" y="46.8" width="36.0" height="36.0" fill="#5e7355"/><rect x="1006.8" y="46.8" width="36.0" height="36.0" fill="#5e7355"/><rect x="126.8" y="86.8" width="36.0" height="36.0" fill="#5e7355"/><rect x="166.8" y="86.8" width="36.0" height="36.0" fill="#6f855f"/><rect x="206.8" y="86.8" width="36.0" height="36.0" fill="#5e7355"/><rect x="246.8" y="86.8" width="36.0" height="36.0" fill="#8aa072"/><rect x="286.8" y="86.8" width="36.0" height="36.0" fill="#6f855f"/><rect x="326.8" y="86.8" width="36.0" height="36.0" fill="#5e7355"/><rect x="366.8" y="86.8" width="36.0" height="36.0" fill="#6f855f"/><rect x="406.8" y="86.8" width="36.0" height="36.0" fill="#5e7355"/><rect x="446.8" y="86.8" width="36.0" height="36.0" fill="#5e7355"/><rect x="486.8" y="86.8" width="36.0" height="36.0" fill="#3f4f39"/><rect x="526.8" y="86.8" width="36.0" height="36.0" fill="#5e7355"/><rect x="566.8" y="86.8" width="36.0" height="36.0" fill="#6f855f"/><rect x="606.8" y="86.8" width="36.0" height="36.0" fill="#5e7355"/><rect x="646.8" y="86.8" width="36.0" height="36.0" fill="#5e7355"/><rect x="686.8" y="86.8" width="36.0" height="36.0" fill="#6f855f"/><rect x="726.8" y="86.8" width="36.0" height="36.0" fill="#8aa072"/><rect x="766.8" y="86.8" width="36.0" height="36.0" fill="#6f855f"/><rect x="806.8" y="86.8" width="36.0" height="36.0" fill="#5e7355"/><rect x="846.8" y="86.8" width="36.0" height="36.0" fill="#5e7355"/><rect x="886.8" y="86.8" width="36.0" height="36.0" fill="#6f855f"/><rect x="926.8" y="86.8" width="36.0" height="36.0" fill="#5e7355"/><rect x="966.8" y="86.8" width="36.0" height="36.0" fill="#8aa072"/><rect x="1006.8" y="86.8" width="36.0" height="36.0" fill="#3f4f39"/><rect x="1046.8" y="86.8" width="36.0" height="36.0" fill="#5e7355"/><rect x="86.8" y="126.8" width="36.0" height="36.0" fill="#5e7355"/><rect x="126.8" y="126.8" width="36.0" height="36.0" fill="#8aa072"/><rect x="166.8" y="126.8" width="36.0" height="36.0" fill="#5e7355"/><rect x="206.8" y="126.8" width="36.0" height="36.0" fill="#3f4f39"/><rect x="246.8" y="126.8" width="36.0" height="36.0" fill="#5e7355"/><rect x="286.8" y="126.8" width="36.0" height="36.0" fill="#5e7355"/><rect x="326.8" y="126.8" width="36.0" height="36.0" fill="#6f855f"/><rect x="366.8" y="126.8" width="36.0" height="36.0" fill="#8aa072"/><rect x="406.8" y="126.8" width="36.0" height="36.0" fill="#6f855f"/><rect x="446.8" y="126.8" width="36.0" height="36.0" fill="#5e7355"/><rect x="486.8" y="126.8" width="36.0" height="36.0" fill="#5e7355"/><rect x="526.8" y="126.8" width="36.0" height="36.0" fill="#6f855f"/><rect x="566.8" y="126.8" width="36.0" height="36.0" fill="#5e7355"/><rect x="606.8" y="126.8" width="36.0" height="36.0" fill="#8aa072"/><rect x="646.8" y="126.8" width="36.0" height="36.0" fill="#5e7355"/><rect x="686.8" y="126.8" width="36.0" height="36.0" fill="#5e7355"/><rect x="726.8" y="126.8" width="36.0" height="36.0" fill="#3f4f39"/><rect x="766.8" y="126.8" width="36.0" height="36.0" fill="#5e7355"/><rect x="806.8" y="126.8" width="36.0" height="36.0" fill="#6f855f"/><rect x="846.8" y="126.8" width="36.0" height="36.0" fill="#8aa072"/><rect x="886.8" y="126.8" width="36.0" height="36.0" fill="#5e7355"/><rect x="926.8" y="126.8" width="36.0" height="36.0" fill="#6f855f"/><rect x="966.8" y="126.8" width="36.0" height="36.0" fill="#5e7355"/><rect x="1006.8" y="126.8" width="36.0" height="36.0" fill="#6f855f"/><rect x="1046.8" y="126.8" width="36.0" height="36.0" fill="#5e7355"/><rect x="1086.8" y="126.8" width="36.0" height="36.0" fill="#8aa072"/><rect x="6.8" y="166.8" width="36.0" height="36.0" fill="#8aa072"/><rect x="46.8" y="166.8" width="36.0" height="36.0" fill="#6f855f"/><rect x="86.8" y="166.8" width="36.0" height="36.0" fill="#5e7355"/><rect x="126.8" y="166.8" width="36.0" height="36.0" fill="#5e7355"/><rect x="166.8" y="166.8" width="36.0" height="36.0" fill="#6f855f"/><rect x="206.8" y="166.8" width="36.0" height="36.0" fill="#5e7355"/><rect x="246.8" y="166.8" width="36.0" height="36.0" fill="#8aa072"/><rect x="286.8" y="166.8" width="36.0" height="36.0" fill="#5e7355"/><rect x="326.8" y="166.8" width="36.0" height="36.0" fill="#5e7355"/><rect x="366.8" y="166.8" width="36.0" height="36.0" fill="#6f855f"/><rect x="406.8" y="166.8" width="36.0" height="36.0" fill="#5e7355"/><rect x="446.8" y="166.8" width="36.0" height="36.0" fill="#3f4f39"/><rect x="486.8" y="166.8" width="36.0" height="36.0" fill="#8aa072"/><rect x="526.8" y="166.8" width="36.0" height="36.0" fill="#5e7355"/><rect x="566.8" y="166.8" width="36.0" height="36.0" fill="#6f855f"/><rect x="606.8" y="166.8" width="36.0" height="36.0" fill="#5e7355"/><rect x="646.8" y="166.8" width="36.0" height="36.0" fill="#6f855f"/><rect x="686.8" y="166.8" width="36.0" height="36.0" fill="#5e7355"/><rect x="726.8" y="166.8" width="36.0" height="36.0" fill="#8aa072"/><rect x="766.8" y="166.8" width="36.0" height="36.0" fill="#6f855f"/><rect x="806.8" y="166.8" width="36.0" height="36.0" fill="#5e7355"/><rect x="846.8" y="166.8" width="36.0" height="36.0" fill="#6f855f"/><rect x="886.8" y="166.8" width="36.0" height="36.0" fill="#5e7355"/><rect x="926.8" y="166.8" width="36.0" height="36.0" fill="#5e7355"/><rect x="966.8" y="166.8" width="36.0" height="36.0" fill="#3f4f39"/><rect x="1006.8" y="166.8" width="36.0" height="36.0" fill="#5e7355"/><rect x="1046.8" y="166.8" width="36.0" height="36.0" fill="#6f855f"/><rect x="1086.8" y="166.8" width="36.0" height="36.0" fill="#5e7355"/><rect x="6.8" y="206.8" width="36.0" height="36.0" fill="#6f855f"/><rect x="46.8" y="206.8" width="36.0" height="36.0" fill="#5e7355"/><rect x="86.8" y="206.8" width="36.0" height="36.0" fill="#6f855f"/><rect x="126.8" y="206.8" width="36.0" height="36.0" fill="#8aa072"/><rect x="166.8" y="206.8" width="36.0" height="36.0" fill="#3f4f39"/><rect x="206.8" y="206.8" width="36.0" height="36.0" fill="#6f855f"/><rect x="246.8" y="206.8" width="36.0" height="36.0" fill="#5e7355"/><rect x="286.8" y="206.8" width="36.0" height="36.0" fill="#6f855f"/><rect x="326.8" y="206.8" width="36.0" height="36.0" fill="#5e7355"/><rect x="366.8" y="206.8" width="36.0" height="36.0" fill="#8aa072"/><rect x="406.8" y="206.8" width="36.0" height="36.0" fill="#6f855f"/><rect x="446.8" y="206.8" width="36.0" height="36.0" fill="#5e7355"/><rect x="486.8" y="206.8" width="36.0" height="36.0" fill="#6f855f"/><rect x="526.8" y="206.8" width="36.0" height="36.0" fill="#5e7355"/><rect x="566.8" y="206.8" width="36.0" height="36.0" fill="#5e7355"/><rect x="606.8" y="206.8" width="36.0" height="36.0" fill="#8aa072"/><rect x="646.8" y="206.8" width="36.0" height="36.0" fill="#5e7355"/><rect x="686.8" y="206.8" width="36.0" height="36.0" fill="#3f4f39"/><rect x="726.8" y="206.8" width="36.0" height="36.0" fill="#5e7355"/><rect x="766.8" y="206.8" width="36.0" height="36.0" fill="#5e7355"/><rect x="806.8" y="206.8" width="36.0" height="36.0" fill="#6f855f"/><rect x="846.8" y="206.8" width="36.0" height="36.0" fill="#8aa072"/><rect x="886.8" y="206.8" width="36.0" height="36.0" fill="#6f855f"/><rect x="926.8" y="206.8" width="36.0" height="36.0" fill="#5e7355"/><rect x="966.8" y="206.8" width="36.0" height="36.0" fill="#5e7355"/><rect x="1006.8" y="206.8" width="36.0" height="36.0" fill="#6f855f"/><rect x="1046.8" y="206.8" width="36.0" height="36.0" fill="#5e7355"/><rect x="1086.8" y="206.8" width="36.0" height="36.0" fill="#8aa072"/><rect x="6.8" y="246.8" width="36.0" height="36.0" fill="#8aa072"/><rect x="46.8" y="246.8" width="36.0" height="36.0" fill="#6f855f"/><rect x="86.8" y="246.8" width="36.0" height="36.0" fill="#5e7355"/><rect x="126.8" y="246.8" width="36.0" height="36.0" fill="#6f855f"/><rect x="166.8" y="246.8" width="36.0" height="36.0" fill="#5e7355"/><rect x="206.8" y="246.8" width="36.0" height="36.0" fill="#5e7355"/><rect x="246.8" y="246.8" width="36.0" height="36.0" fill="#8aa072"/><rect x="286.8" y="246.8" width="36.0" height="36.0" fill="#5e7355"/><rect x="326.8" y="246.8" width="36.0" height="36.0" fill="#6f855f"/><rect x="366.8" y="246.8" width="36.0" height="36.0" fill="#5e7355"/><rect x="406.8" y="246.8" width="36.0" height="36.0" fill="#3f4f39"/><rect x="446.8" y="246.8" width="36.0" height="36.0" fill="#6f855f"/><rect x="486.8" y="246.8" width="36.0" height="36.0" fill="#8aa072"/><rect x="526.8" y="246.8" width="36.0" height="36.0" fill="#6f855f"/><rect x="566.8" y="246.8" width="36.0" height="36.0" fill="#5e7355"/><rect x="606.8" y="246.8" width="36.0" height="36.0" fill="#5a3f29"/><rect x="646.8" y="246.8" width="36.0" height="36.0" fill="#5a3f29"/><rect x="686.8" y="246.8" width="36.0" height="36.0" fill="#7a5536"/><rect x="726.8" y="246.8" width="36.0" height="36.0" fill="#8aa072"/><rect x="766.8" y="246.8" width="36.0" height="36.0" fill="#5e7355"/><rect x="806.8" y="246.8" width="36.0" height="36.0" fill="#5e7355"/><rect x="846.8" y="246.8" width="36.0" height="36.0" fill="#6f855f"/><rect x="886.8" y="246.8" width="36.0" height="36.0" fill="#5e7355"/><rect x="926.8" y="246.8" width="36.0" height="36.0" fill="#3f4f39"/><rect x="966.8" y="246.8" width="36.0" height="36.0" fill="#8aa072"/><rect x="1006.8" y="246.8" width="36.0" height="36.0" fill="#5e7355"/><rect x="1046.8" y="246.8" width="36.0" height="36.0" fill="#6f855f"/><rect x="1086.8" y="246.8" width="36.0" height="36.0" fill="#5e7355"/><rect x="6.8" y="286.8" width="36.0" height="36.0" fill="#5e7355"/><rect x="46.8" y="286.8" width="36.0" height="36.0" fill="#5e7355"/><rect x="86.8" y="286.8" width="36.0" height="36.0" fill="#6f855f"/><rect x="126.8" y="286.8" width="36.0" height="36.0" fill="#3f4f39"/><rect x="166.8" y="286.8" width="36.0" height="36.0" fill="#6f855f"/><rect x="206.8" y="286.8" width="36.0" height="36.0" fill="#5e7355"/><rect x="246.8" y="286.8" width="36.0" height="36.0" fill="#5e7355"/><rect x="286.8" y="286.8" width="36.0" height="36.0" fill="#6f855f"/><rect x="326.8" y="286.8" width="36.0" height="36.0" fill="#5e7355"/><rect x="366.8" y="286.8" width="36.0" height="36.0" fill="#8aa072"/><rect x="406.8" y="286.8" width="36.0" height="36.0" fill="#5e7355"/><rect x="446.8" y="286.8" width="36.0" height="36.0" fill="#5e7355"/><rect x="486.8" y="286.8" width="36.0" height="36.0" fill="#6f855f"/><rect x="526.8" y="286.8" width="36.0" height="36.0" fill="#5e7355"/><rect x="566.8" y="286.8" width="36.0" height="36.0" fill="#6f855f"/><rect x="606.8" y="286.8" width="36.0" height="36.0" fill="#5a3f29"/><rect x="646.8" y="286.8" width="36.0" height="36.0" fill="#5a3f29"/><rect x="686.8" y="286.8" width="36.0" height="36.0" fill="#7a5536"/><rect x="726.8" y="286.8" width="36.0" height="36.0" fill="#5e7355"/><rect x="766.8" y="286.8" width="36.0" height="36.0" fill="#6f855f"/><rect x="806.8" y="286.8" width="36.0" height="36.0" fill="#5e7355"/><rect x="846.8" y="286.8" width="36.0" height="36.0" fill="#8aa072"/><rect x="886.8" y="286.8" width="36.0" height="36.0" fill="#6f855f"/><rect x="926.8" y="286.8" width="36.0" height="36.0" fill="#5e7355"/><rect x="966.8" y="286.8" width="36.0" height="36.0" fill="#6f855f"/><rect x="1006.8" y="286.8" width="36.0" height="36.0" fill="#5e7355"/><rect x="1046.8" y="286.8" width="36.0" height="36.0" fill="#5e7355"/><rect x="1086.8" y="286.8" width="36.0" height="36.0" fill="#8aa072"/><rect x="6.8" y="326.8" width="36.0" height="36.0" fill="#8aa072"/><rect x="46.8" y="326.8" width="36.0" height="36.0" fill="#5e7355"/><rect x="86.8" y="326.8" width="36.0" height="36.0" fill="#5e7355"/><rect x="126.8" y="326.8" width="36.0" height="36.0" fill="#6f855f"/><rect x="166.8" y="326.8" width="36.0" height="36.0" fill="#5e7355"/><rect x="206.8" y="326.8" width="36.0" height="36.0" fill="#6f855f"/><rect x="246.8" y="326.8" width="36.0" height="36.0" fill="#8aa072"/><rect x="286.8" y="326.8" width="36.0" height="36.0" fill="#5e7355"/><rect x="326.8" y="326.8" width="36.0" height="36.0" fill="#6f855f"/><rect x="366.8" y="326.8" width="36.0" height="36.0" fill="#3f4f39"/><rect x="406.8" y="326.8" width="36.0" height="36.0" fill="#6f855f"/><rect x="446.8" y="326.8" width="36.0" height="36.0" fill="#5e7355"/><rect x="486.8" y="326.8" width="36.0" height="36.0" fill="#8aa072"/><rect x="526.8" y="326.8" width="36.0" height="36.0" fill="#6f855f"/><rect x="566.8" y="326.8" width="36.0" height="36.0" fill="#5e7355"/><rect x="606.8" y="326.8" width="36.0" height="36.0" fill="#5a3f29"/><rect x="646.8" y="326.8" width="36.0" height="36.0" fill="#5a3f29"/><rect x="686.8" y="326.8" width="36.0" height="36.0" fill="#7a5536"/><rect x="726.8" y="326.8" width="36.0" height="36.0" fill="#8aa072"/><rect x="766.8" y="326.8" width="36.0" height="36.0" fill="#5e7355"/><rect x="806.8" y="326.8" width="36.0" height="36.0" fill="#6f855f"/><rect x="846.8" y="326.8" width="36.0" height="36.0" fill="#5e7355"/><rect x="886.8" y="326.8" width="36.0" height="36.0" fill="#3f4f39"/><rect x="926.8" y="326.8" width="36.0" height="36.0" fill="#6f855f"/><rect x="966.8" y="326.8" width="36.0" height="36.0" fill="#8aa072"/><rect x="1006.8" y="326.8" width="36.0" height="36.0" fill="#6f855f"/><rect x="1046.8" y="326.8" width="36.0" height="36.0" fill="#5e7355"/><rect x="1086.8" y="326.8" width="36.0" height="36.0" fill="#5e7355"/><rect x="46.8" y="366.8" width="36.0" height="36.0" fill="#8aa072"/><rect x="86.8" y="366.8" width="36.0" height="36.0" fill="#8aa072"/><rect x="126.8" y="366.8" width="36.0" height="36.0" fill="#5e7355"/><rect x="166.8" y="366.8" width="36.0" height="36.0" fill="#5e7355"/><rect x="206.8" y="366.8" width="36.0" height="36.0" fill="#5e7355"/><rect x="246.8" y="366.8" width="36.0" height="36.0" fill="#5e7355"/><rect x="286.8" y="366.8" width="36.0" height="36.0" fill="#5e7355"/><rect x="326.8" y="366.8" width="36.0" height="36.0" fill="#5e7355"/><rect x="366.8" y="366.8" width="36.0" height="36.0" fill="#5e7355"/><rect x="406.8" y="366.8" width="36.0" height="36.0" fill="#5e7355"/><rect x="446.8" y="366.8" width="36.0" height="36.0" fill="#5e7355"/><rect x="486.8" y="366.8" width="36.0" height="36.0" fill="#5e7355"/><rect x="526.8" y="366.8" width="36.0" height="36.0" fill="#5e7355"/><rect x="566.8" y="366.8" width="36.0" height="36.0" fill="#5a3f29"/><rect x="606.8" y="366.8" width="36.0" height="36.0" fill="#5a3f29"/><rect x="646.8" y="366.8" width="36.0" height="36.0" fill="#7a5536"/><rect x="686.8" y="366.8" width="36.0" height="36.0" fill="#5e7355"/><rect x="726.8" y="366.8" width="36.0" height="36.0" fill="#5e7355"/><rect x="766.8" y="366.8" width="36.0" height="36.0" fill="#5e7355"/><rect x="806.8" y="366.8" width="36.0" height="36.0" fill="#5e7355"/><rect x="846.8" y="366.8" width="36.0" height="36.0" fill="#5e7355"/><rect x="886.8" y="366.8" width="36.0" height="36.0" fill="#5e7355"/><rect x="926.8" y="366.8" width="36.0" height="36.0" fill="#5e7355"/><rect x="966.8" y="366.8" width="36.0" height="36.0" fill="#5e7355"/><rect x="1006.8" y="366.8" width="36.0" height="36.0" fill="#5e7355"/><rect x="1046.8" y="366.8" width="36.0" height="36.0" fill="#5e7355"/><rect x="1086.8" y="366.8" width="36.0" height="36.0" fill="#5e7355"/><rect x="1126.8" y="366.8" width="36.0" height="36.0" fill="#5e7355"/><rect x="46.8" y="406.8" width="36.0" height="36.0" fill="#8aa072"/><rect x="126.8" y="406.8" width="36.0" height="36.0" fill="#5e7355"/><rect x="166.8" y="406.8" width="36.0" height="36.0" fill="#5e7355"/><rect x="206.8" y="406.8" width="36.0" height="36.0" fill="#5e7355"/><rect x="246.8" y="406.8" width="36.0" height="36.0" fill="#8aa072"/><rect x="286.8" y="406.8" width="36.0" height="36.0" fill="#5e7355"/><rect x="326.8" y="406.8" width="36.0" height="36.0" fill="#5e7355"/><rect x="366.8" y="406.8" width="36.0" height="36.0" fill="#5e7355"/><rect x="406.8" y="406.8" width="36.0" height="36.0" fill="#5e7355"/><rect x="446.8" y="406.8" width="36.0" height="36.0" fill="#5e7355"/><rect x="486.8" y="406.8" width="36.0" height="36.0" fill="#5e7355"/><rect x="526.8" y="406.8" width="36.0" height="36.0" fill="#5e7355"/><rect x="566.8" y="406.8" width="36.0" height="36.0" fill="#5a3f29"/><rect x="606.8" y="406.8" width="36.0" height="36.0" fill="#5a3f29"/><rect x="646.8" y="406.8" width="36.0" height="36.0" fill="#7a5536"/><rect x="686.8" y="406.8" width="36.0" height="36.0" fill="#5e7355"/><rect x="726.8" y="406.8" width="36.0" height="36.0" fill="#5e7355"/><rect x="766.8" y="406.8" width="36.0" height="36.0" fill="#5e7355"/><rect x="806.8" y="406.8" width="36.0" height="36.0" fill="#5e7355"/><rect x="846.8" y="406.8" width="36.0" height="36.0" fill="#5e7355"/><rect x="886.8" y="406.8" width="36.0" height="36.0" fill="#5e7355"/><rect x="926.8" y="406.8" width="36.0" height="36.0" fill="#5e7355"/><rect x="966.8" y="406.8" width="36.0" height="36.0" fill="#5e7355"/><rect x="1006.8" y="406.8" width="36.0" height="36.0" fill="#5e7355"/><rect x="1046.8" y="406.8" width="36.0" height="36.0" fill="#5e7355"/><rect x="1086.8" y="406.8" width="36.0" height="36.0" fill="#5e7355"/><rect x="1126.8" y="406.8" width="36.0" height="36.0" fill="#8aa072"/><rect x="166.8" y="446.8" width="36.0" height="36.0" fill="#8aa072"/><rect x="206.8" y="446.8" width="36.0" height="36.0" fill="#6f855f"/><rect x="246.8" y="446.8" width="36.0" height="36.0" fill="#6f855f"/><rect x="286.8" y="446.8" width="36.0" height="36.0" fill="#8aa072"/><rect x="326.8" y="446.8" width="36.0" height="36.0" fill="#6f855f"/><rect x="366.8" y="446.8" width="36.0" height="36.0" fill="#6f855f"/><rect x="406.8" y="446.8" width="36.0" height="36.0" fill="#6f855f"/><rect x="446.8" y="446.8" width="36.0" height="36.0" fill="#6f855f"/><rect x="486.8" y="446.8" width="36.0" height="36.0" fill="#6f855f"/><rect x="526.8" y="446.8" width="36.0" height="36.0" fill="#6f855f"/><rect x="566.8" y="446.8" width="36.0" height="36.0" fill="#5a3f29"/><rect x="606.8" y="446.8" width="36.0" height="36.0" fill="#5a3f29"/><rect x="646.8" y="446.8" width="36.0" height="36.0" fill="#7a5536"/><rect x="686.8" y="446.8" width="36.0" height="36.0" fill="#6f855f"/><rect x="726.8" y="446.8" width="36.0" height="36.0" fill="#6f855f"/><rect x="766.8" y="446.8" width="36.0" height="36.0" fill="#6f855f"/><rect x="806.8" y="446.8" width="36.0" height="36.0" fill="#6f855f"/><rect x="846.8" y="446.8" width="36.0" height="36.0" fill="#6f855f"/><rect x="886.8" y="446.8" width="36.0" height="36.0" fill="#6f855f"/><rect x="926.8" y="446.8" width="36.0" height="36.0" fill="#6f855f"/><rect x="966.8" y="446.8" width="36.0" height="36.0" fill="#6f855f"/><rect x="1006.8" y="446.8" width="36.0" height="36.0" fill="#6f855f"/><rect x="1046.8" y="446.8" width="36.0" height="36.0" fill="#6f855f"/><rect x="1086.8" y="446.8" width="36.0" height="36.0" fill="#8aa072"/><rect x="1126.8" y="446.8" width="36.0" height="36.0" fill="#6f855f"/><rect x="166.8" y="486.8" width="36.0" height="36.0" fill="#8aa072"/><rect x="206.8" y="486.8" width="36.0" height="36.0" fill="#8aa072"/><rect x="246.8" y="486.8" width="36.0" height="36.0" fill="#8aa072"/><rect x="326.8" y="486.8" width="36.0" height="36.0" fill="#5e7355"/><rect x="366.8" y="486.8" width="36.0" height="36.0" fill="#5e7355"/><rect x="406.8" y="486.8" width="36.0" height="36.0" fill="#5e7355"/><rect x="446.8" y="486.8" width="36.0" height="36.0" fill="#8aa072"/><rect x="486.8" y="486.8" width="36.0" height="36.0" fill="#5e7355"/><rect x="526.8" y="486.8" width="36.0" height="36.0" fill="#5e7355"/><rect x="566.8" y="486.8" width="36.0" height="36.0" fill="#5a3f29"/><rect x="606.8" y="486.8" width="36.0" height="36.0" fill="#5a3f29"/><rect x="646.8" y="486.8" width="36.0" height="36.0" fill="#7a5536"/><rect x="686.8" y="486.8" width="36.0" height="36.0" fill="#5e7355"/><rect x="726.8" y="486.8" width="36.0" height="36.0" fill="#5e7355"/><rect x="766.8" y="486.8" width="36.0" height="36.0" fill="#5e7355"/><rect x="806.8" y="486.8" width="36.0" height="36.0" fill="#5e7355"/><rect x="846.8" y="486.8" width="36.0" height="36.0" fill="#5e7355"/><rect x="886.8" y="486.8" width="36.0" height="36.0" fill="#5e7355"/><rect x="926.8" y="486.8" width="36.0" height="36.0" fill="#5e7355"/><rect x="966.8" y="486.8" width="36.0" height="36.0" fill="#5e7355"/><rect x="1006.8" y="486.8" width="36.0" height="36.0" fill="#5e7355"/><rect x="1046.8" y="486.8" width="36.0" height="36.0" fill="#5e7355"/><rect x="1086.8" y="486.8" width="36.0" height="36.0" fill="#8aa072"/><rect x="1126.8" y="486.8" width="36.0" height="36.0" fill="#5e7355"/><rect x="246.8" y="526.8" width="36.0" height="36.0" fill="#8aa072"/><rect x="286.8" y="526.8" width="36.0" height="36.0" fill="#8aa072"/><rect x="366.8" y="526.8" width="36.0" height="36.0" fill="#5e7355"/><rect x="406.8" y="526.8" width="36.0" height="36.0" fill="#5e7355"/><rect x="446.8" y="526.8" width="36.0" height="36.0" fill="#5e7355"/><rect x="486.8" y="526.8" width="36.0" height="36.0" fill="#8aa072"/><rect x="526.8" y="526.8" width="36.0" height="36.0" fill="#5e7355"/><rect x="566.8" y="526.8" width="36.0" height="36.0" fill="#5a3f29"/><rect x="606.8" y="526.8" width="36.0" height="36.0" fill="#5a3f29"/><rect x="646.8" y="526.8" width="36.0" height="36.0" fill="#7a5536"/><rect x="686.8" y="526.8" width="36.0" height="36.0" fill="#5e7355"/><rect x="726.8" y="526.8" width="36.0" height="36.0" fill="#5e7355"/><rect x="766.8" y="526.8" width="36.0" height="36.0" fill="#5e7355"/><rect x="806.8" y="526.8" width="36.0" height="36.0" fill="#5e7355"/><rect x="846.8" y="526.8" width="36.0" height="36.0" fill="#5e7355"/><rect x="886.8" y="526.8" width="36.0" height="36.0" fill="#5e7355"/><rect x="926.8" y="526.8" width="36.0" height="36.0" fill="#5e7355"/><rect x="966.8" y="526.8" width="36.0" height="36.0" fill="#5e7355"/><rect x="1006.8" y="526.8" width="36.0" height="36.0" fill="#5e7355"/><rect x="1046.8" y="526.8" width="36.0" height="36.0" fill="#5e7355"/><rect x="1086.8" y="526.8" width="36.0" height="36.0" fill="#5e7355"/><rect x="366.8" y="566.8" width="36.0" height="36.0" fill="#8aa072"/><rect x="406.8" y="566.8" width="36.0" height="36.0" fill="#8aa072"/><rect x="446.8" y="566.8" width="36.0" height="36.0" fill="#6f855f"/><rect x="526.8" y="566.8" width="36.0" height="36.0" fill="#5a3f29"/><rect x="566.8" y="566.8" width="36.0" height="36.0" fill="#5a3f29"/><rect x="606.8" y="566.8" width="36.0" height="36.0" fill="#7a5536"/><rect x="646.8" y="566.8" width="36.0" height="36.0" fill="#8aa072"/><rect x="686.8" y="566.8" width="36.0" height="36.0" fill="#6f855f"/><rect x="726.8" y="566.8" width="36.0" height="36.0" fill="#6f855f"/><rect x="766.8" y="566.8" width="36.0" height="36.0" fill="#6f855f"/><rect x="806.8" y="566.8" width="36.0" height="36.0" fill="#6f855f"/><rect x="846.8" y="566.8" width="36.0" height="36.0" fill="#6f855f"/><rect x="886.8" y="566.8" width="36.0" height="36.0" fill="#6f855f"/><rect x="926.8" y="566.8" width="36.0" height="36.0" fill="#6f855f"/><rect x="966.8" y="566.8" width="36.0" height="36.0" fill="#8aa072"/><rect x="1006.8" y="566.8" width="36.0" height="36.0" fill="#6f855f"/><rect x="1046.8" y="566.8" width="36.0" height="36.0" fill="#6f855f"/><rect x="1086.8" y="566.8" width="36.0" height="36.0" fill="#6f855f"/><rect x="406.8" y="606.8" width="36.0" height="36.0" fill="#8aa072"/><rect x="446.8" y="606.8" width="36.0" height="36.0" fill="#8aa072"/><rect x="486.8" y="606.8" width="36.0" height="36.0" fill="#8aa072"/><rect x="526.8" y="606.8" width="36.0" height="36.0" fill="#5a3f29"/><rect x="566.8" y="606.8" width="36.0" height="36.0" fill="#5a3f29"/><rect x="606.8" y="606.8" width="36.0" height="36.0" fill="#7a5536"/><rect x="646.8" y="606.8" width="36.0" height="36.0" fill="#5e7355"/><rect x="686.8" y="606.8" width="36.0" height="36.0" fill="#8aa072"/><rect x="726.8" y="606.8" width="36.0" height="36.0" fill="#5e7355"/><rect x="766.8" y="606.8" width="36.0" height="36.0" fill="#5e7355"/><rect x="806.8" y="606.8" width="36.0" height="36.0" fill="#5e7355"/><rect x="846.8" y="606.8" width="36.0" height="36.0" fill="#8aa072"/><rect x="886.8" y="606.8" width="36.0" height="36.0" fill="#5e7355"/><rect x="926.8" y="606.8" width="36.0" height="36.0" fill="#5e7355"/><rect x="966.8" y="606.8" width="36.0" height="36.0" fill="#5e7355"/><rect x="1006.8" y="606.8" width="36.0" height="36.0" fill="#8aa072"/><rect x="1046.8" y="606.8" width="36.0" height="36.0" fill="#5e7355"/><rect x="1086.8" y="606.8" width="36.0" height="36.0" fill="#5e7355"/><rect x="1126.8" y="606.8" width="36.0" height="36.0" fill="#8aa072"/><rect x="486.8" y="646.8" width="36.0" height="36.0" fill="#8aa072"/><rect x="526.8" y="646.8" width="36.0" height="36.0" fill="#5a3f29"/><rect x="566.8" y="646.8" width="36.0" height="36.0" fill="#5a3f29"/><rect x="606.8" y="646.8" width="36.0" height="36.0" fill="#7a5536"/><rect x="646.8" y="646.8" width="36.0" height="36.0" fill="#5e7355"/><rect x="726.8" y="646.8" width="36.0" height="36.0" fill="#5e7355"/><rect x="766.8" y="646.8" width="36.0" height="36.0" fill="#5e7355"/><rect x="806.8" y="646.8" width="36.0" height="36.0" fill="#5e7355"/><rect x="846.8" y="646.8" width="36.0" height="36.0" fill="#8aa072"/><rect x="886.8" y="646.8" width="36.0" height="36.0" fill="#5e7355"/><rect x="926.8" y="646.8" width="36.0" height="36.0" fill="#5e7355"/><rect x="966.8" y="646.8" width="36.0" height="36.0" fill="#5e7355"/><rect x="1046.8" y="646.8" width="36.0" height="36.0" fill="#5e7355"/><rect x="1086.8" y="646.8" width="36.0" height="36.0" fill="#8aa072"/><rect x="1126.8" y="646.8" width="36.0" height="36.0" fill="#8aa072"/><rect x="526.8" y="686.8" width="36.0" height="36.0" fill="#5a3f29"/><rect x="566.8" y="686.8" width="36.0" height="36.0" fill="#5a3f29"/><rect x="606.8" y="686.8" width="36.0" height="36.0" fill="#7a5536"/><rect x="646.8" y="686.8" width="36.0" height="36.0" fill="#8aa072"/><rect x="686.8" y="686.8" width="36.0" height="36.0" fill="#8aa072"/><rect x="766.8" y="686.8" width="36.0" height="36.0" fill="#8aa072"/><rect x="806.8" y="686.8" width="36.0" height="36.0" fill="#8aa072"/><rect x="846.8" y="686.8" width="36.0" height="36.0" fill="#6f855f"/><rect x="926.8" y="686.8" width="36.0" height="36.0" fill="#6f855f"/><rect x="966.8" y="686.8" width="36.0" height="36.0" fill="#6f855f"/><rect x="1006.8" y="686.8" width="36.0" height="36.0" fill="#8aa072"/><rect x="1086.8" y="686.8" width="36.0" height="36.0" fill="#8aa072"/><rect x="1126.8" y="686.8" width="36.0" height="36.0" fill="#8aa072"/><rect x="526.8" y="726.8" width="36.0" height="36.0" fill="#5a3f29"/><rect x="566.8" y="726.8" width="36.0" height="36.0" fill="#5a3f29"/><rect x="606.8" y="726.8" width="36.0" height="36.0" fill="#7a5536"/><rect x="726.8" y="726.8" width="36.0" height="36.0" fill="#8aa072"/><rect x="806.8" y="726.8" width="36.0" height="36.0" fill="#8aa072"/><rect x="846.8" y="726.8" width="36.0" height="36.0" fill="#8aa072"/><rect x="886.8" y="726.8" width="36.0" height="36.0" fill="#8aa072"/><rect x="966.8" y="726.8" width="36.0" height="36.0" fill="#8aa072"/><rect x="1006.8" y="726.8" width="36.0" height="36.0" fill="#8aa072"/><rect x="1046.8" y="726.8" width="36.0" height="36.0" fill="#8aa072"/><rect x="1126.8" y="726.8" width="36.0" height="36.0" fill="#8aa072"/><rect x="526.8" y="766.8" width="36.0" height="36.0" fill="#5a3f29"/><rect x="566.8" y="766.8" width="36.0" height="36.0" fill="#5a3f29"/><rect x="606.8" y="766.8" width="36.0" height="36.0" fill="#7a5536"/><rect x="886.8" y="766.8" width="36.0" height="36.0" fill="#8aa072"/><rect x="966.8" y="766.8" width="36.0" height="36.0" fill="#8aa072"/><rect x="1006.8" y="766.8" width="36.0" height="36.0" fill="#8aa072"/><rect x="486.8" y="806.8" width="36.0" height="36.0" fill="#5a3f29"/><rect x="526.8" y="806.8" width="36.0" height="36.0" fill="#5a3f29"/><rect x="566.8" y="806.8" width="36.0" height="36.0" fill="#7a5536"/><rect x="486.8" y="846.8" width="36.0" height="36.0" fill="#5a3f29"/><rect x="526.8" y="846.8" width="36.0" height="36.0" fill="#5a3f29"/><rect x="566.8" y="846.8" width="36.0" height="36.0" fill="#7a5536"/><rect x="486.8" y="886.8" width="36.0" height="36.0" fill="#5a3f29"/><rect x="526.8" y="886.8" width="36.0" height="36.0" fill="#5a3f29"/><rect x="566.8" y="886.8" width="36.0" height="36.0" fill="#7a5536"/><rect x="406.8" y="926.8" width="36.0" height="36.0" fill="#5a3f29"/><rect x="446.8" y="926.8" width="36.0" height="36.0" fill="#7a5536"/><rect x="486.8" y="926.8" width="36.0" height="36.0" fill="#5a3f29"/><rect x="526.8" y="926.8" width="36.0" height="36.0" fill="#7a5536"/><rect x="566.8" y="926.8" width="36.0" height="36.0" fill="#5a3f29"/><rect x="606.8" y="926.8" width="36.0" height="36.0" fill="#7a5536"/><rect x="646.8" y="926.8" width="36.0" height="36.0" fill="#5a3f29"/></svg>