<svg xmlns="http://www.w3.org/2000/svg" width="1184" height="1184" viewBox="0 0 1184 1184"><rect x="374.0" y="114.0" width="36.0" height="36.0" fill="#5e7355"/><rect x="414.0" y="114.0" width="36.0" height="36.0" fill="#6f855f"/><rect x="454.0" y="114.0" width="36.0" height="36.0" fill="#5e7355"/><rect x="494.0" y="114.0" width="36.0" height="36.0" fill="#8aa072"/><rect x="534.0" y="114.0" width="36.0" height="36.0" fill="#3f4f39"/><rect x="574.0" y="114.0" width="36.0" height="36.0" fill="#5e7355"/><rect x="614.0" y="114.0" width="36.0" height="36.0" fill="#6f855f"/><rect x="654.0" y="114.0" width="36.0" height="36.0" fill="#5e7355"/><rect x="694.0" y="114.0" width="36.0" height="36.0" fill="#6f855f"/><rect x="734.0" y="114.0" width="36.0" height="36.0" fill="#8aa072"/><rect x="774.0" y="114.0" width="36.0" height="36.0" fill="#5e7355"/><rect x="814.0" y="114.0" width="36.0" height="36.0" fill="#6f855f"/><rect x="854.0" y="114.0" width="36.0" height="36.0" fill="#5e7355"/><rect x="894.0" y="114.0" width="36.0" height="36.0" fill="#6f855f"/><rect x="934.0" y="114.0" width="36.0" height="36.0" fill="#5e7355"/><rect x="214.0" y="154.0" width="36.0" height="36.0" fill="#5e7355"/><rect x="254.0" y="154.0" width="36.0" height="36.0" fill="#3f4f39"/><rect x="294.0" y="154.0" width="36.0" height="36.0" fill="#5e7355"/><rect x="334.0" y="154.0" width="36.0" height="36.0" fill="#6f855f"/><rect x="374.0" y="154.0" width="36.0" height="36.0" fill="#8aa072"/><rect x="414.0" y="154.0" width="36.0" height="36.0" fill="#5e7355"/><rect x="454.0" y="154.0" width="36.0" height="36.0" fill="#6f855f"/><rect x="494.0" y="154.0" width="36.0" height="36.0" fill="#5e7355"/><rect x="534.0" y="154.0" width="36.0" height="36.0" fill="#6f855f"/><rect x="574.0" y="154.0" width="36.0" height="36.0" fill="#5e7355"/><rect x="614.0" y="154.0" width="36.0" height="36.0" fill="#8aa072"/><rect x="654.0" y="154.0" width="36.0" height="36.0" fill="#6f855f"/><rect x="694.0" y="154.0" width="36.0" height="36.0" fill="#5e7355"/><rect x="734.0" y="154.0" width="36.0" height="36.0" fill="#6f855f"/><rect x="774.0" y="154.0" width="36.0" height="36.0" fill="#3f4f39"/><rect x="814.0" y="154.0" width="36.0" height="36.0" fill="#5e7355"/><rect x="854.0" y="154.0" width="36.0" height="36.0" fill="#8aa072"/><rect x="894.0" y="154.0" width="36.0" height="36.0" fill="#5e7355"/><rect x="934.0" y="154.0" width="36.0" height="36.0" fill="#6f855f"/><rect x="974.0" y="154.0" width="36.0" height="36.0" fill="#5e7355"/><rect x="1014.0" y="154.0" width="36.0" height="36.0" fill="#5e7355"/><rect x="134.0" y="194.0" width="36.0" height="36.0" fill="#5e7355"/><rect x="174.0" y="194.0" width="36.0" height="36.0" fill="#6f855f"/><rect x="214.0" y="194.0" width="36.0" height="36.0" fill="#5e7355"/><rect x="254.0" y="194.0" width="36.0" height="36.0" fill="#8aa072"/><rect x="294.0" y="194.0" width="36.0" height="36.0" fill="#6f855f"/><rect x="334.0" y="194.0" width="36.0" height="36.0" fill="#5e7355"/><rect x="374.0" y="194.0" width="36.0" height="36.0" fill="#6f855f"/><rect x="414.0" y="194.0" width="36.0" height="36.0" fill="#5e7355"/><rect x="454.0" y="194.0" width="36.0" height="36.0" fill="#5e7355"/><rect x="494.0" y="194.0" width="36.0" height="36.0" fill="#3f4f39"/><rect x="534.0" y="194.0" width="36.0" height="36.0" fill="#5e7355"/><rect x="574.0" y="194.0" width="36.0" height="36.0" fill="#6f855f"/><rect x="614.0" y="194.0" width="36.0" height="36.0" fill="#5e7355"/><rect x="654.0" y="194.0" width="36.0" height="36.0" fill="#5e7355"/><rect x="694.0" y="194.0" width="36.0" height="36.0" fill="#6f855f"/><rect x="734.0" y="194.0" width="36.0" height="36.0" fill="#8aa072"/><rect x="774.0" y="194.0" width="36.0" height="36.0" fill="#6f855f"/><rect x="814.0" y="194.0" width="36.0" height="36.0" fill="#5e7355"/><rect x="854.0" y="194.0" width="36.0" height="36.0" fill="#5e7355"/><rect x="894.0" y="194.0" width="36.0" height="36.0" fill="#6f855f"/><rect x="934.0" y="194.0" width="36.0" height="36.0" fill="#5e7355"/><rect x="974.0" y="194.0" width="36.0" height="36.0" fill="#8aa072"/><rect x="1014.0" y="194.0" width="36.0" height="36.0" fill="#3f4f39"/><rect x="1054.0" y="194.0" width="36.0" height="36.0" fill="#5e7355"/><rect x="94.0" y="234.0" width="36.0" height="36.0" fill="#5e7355"/><rect x="134.0" y="234.0" width="36.0" height="36.0" fill="#8aa072"/><rect x="174.0" y="234.0" width="36.0" height="36.0" fill="#5e7355"/><rect x="214.0" y="234.0" width="36.0" height="36.0" fill="#3f4f39"/><rect x="254.0" y="234.0" width="36.0" height="36.0" fill="#5e7355"/><rect x="294.0" y="234.0" width="36.0" height="36.0" fill="#5e7355"/><rect x="334.0" y="234.0" width="36.0" height="36.0" fill="#6f855f"/><rect x="374.0" y="234.0" width="36.0" height="36.0" fill="#8aa072"/><rect x="414.0" y="234.0" width="36.0" height="36.0" fill="#6f855f"/><rect x="454.0" y="234.0" width="36.0" height="36.0" fill="#5e7355"/><rect x="494.0" y="234.0" width="36.0" height="36.0" fill="#5e7355"/><rect x="534.0" y="234.0" width="36.0" height="36.0" fill="#6f855f"/><rect x="574.0" y="234.0" width="36.0" height="36.0" fill="#5e7355"/><rect x="614.0" y="234.0" width="36.0" height="36.0" fill="#8aa072"/><rect x="654.0" y="234.0" width="36.0" height="36.0" fill="#5e7355"/><rect x="694.0" y="234.0" width="36.0" height="36.0" fill="#5e7355"/><rect x="734.0" y="234.0" width="36.0" height="36.0" fill="#3f4f39"/><rect x="774.0" y="234.0" width="36.0" height="36.0" fill="#5e7355"/><rect x="814.0" y="234.0" width="36.0" height="36.0" fill="#6f855f"/><rect x="854.0" y="234.0" width="36.0" height="36.0" fill="#8aa072"/><rect x="894.0" y="234.0" width="36.0" height="36.0" fill="#5e7355"/><rect x="934.0" y="234.0" width="36.0" height="36.0" fill="#6f855f"/><rect x="974.0" y="234.0" width="36.0" height="36.0" fill="#5e7355"/><rect x="1014.0" y="234.0" width="36.0" height="36.0" fill="#6f855f"/><rect x="1054.0" y="234.0" width="36.0" height="36.0" fill="#5e7355"/><rect x="1094.0" y="234.0" width="36.0" height="36.0" fill="#8aa072"/><rect x="14.0" y="274.0" width="36.0" height="36.0" fill="#8aa072"/><rect x="54.0" y="274.0" width="36.0" height="36.0" fill="#6f855f"/><rect x="94.0" y="274.0" width="36.0" height="36.0" fill="#5e7355"/><rect x="134.0" y="274.0" width="36.0" height="36.0" fill="#5e7355"/><rect x="174.0" y="274.0" width="36.0" height="36.0" fill="#6f855f"/><rect x="214.0" y="274.0" width="36.0" height="36.0" fill="#5e7355"/><rect x="254.0" y="274.0" width="36.0" height="36.0" fill="#8aa072"/><rect x="294.0" y="274.0" width="36.0" height="36.0" fill="#5e7355"/><rect x="334.0" y="274.0" width="36.0" height="36.0" fill="#5e7355"/><rect x="374.0" y="274.0" width="36.0" height="36.0" fill="#6f855f"/><rect x="414.0" y="274.0" width="36.0" height="36.0" fill="#5e7355"/><rect x="454.0" y="274.0" width="36.0" height="36.0" fill="#3f4f39"/><rect x="494.0" y="274.0" width="36.0" height="36.0" fill="#8aa072"/><rect x="534.0" y="274.0" width="36.0" height="36.0" fill="#5e7355"/><rect x="574.0" y="274.0" width="36.0" height="36.0" fill="#6f855f"/><rect x="614.0" y="274.0" width="36.0" height="36.0" fill="#5e7355"/><rect x="654.0" y="274.0" width="36.0" height="36.0" fill="#6f855f"/><rect x="694.0" y="274.0" width="36.0" height="36.0" fill="#5e7355"/><rect x="734.0" y="274.0" width="36.0" height="36.0" fill="#8aa072"/><rect x="774.0" y="274.0" width="36.0" height="36.0" fill="#6f855f"/><rect x="814.0" y="274.0" width="36.0" height="36.0" fill="#5e7355"/><rect x="854.0" y="274.0" width="36.0" height="36.0" fill="#6f855f"/><rect x="894.0" y="274.0" width="36.0" height="36.0" fill="#5e7355"/><rect x="934.0" y="274.0" width="36.0" height="36.0" fill="#5e7355"/><rect x="974.0" y="274.0" width="36.0" height="36.0" fill="#3f4f39"/><rect x="1014.0" y="274.0" width="36.0" height="36.0" fill="#5e7355"/><rect x="1054.0" y="274.0" width="36.0" height="36.0" fill="#6f855f"/><rect x="1094.0" y="274.0" width="36.0" height="36.0" fill="#5e7355"/><rect x="14.0" y="314.0" width="36.0" height="36.0" fill="#6f855f"/><rect x="54.0" y="314.0" width="36.0" height="36.0" fill="#5e7355"/><rect x="94.0" y="314.0" width="36.0" height="36.0" fill="#6f855f"/><rect x="134.0" y="314.0" width="36.0" height="36.0" fill="#8aa072"/><rect x="174.0" y="314.0" width="36.0" height="36.0" fill="#3f4f39"/><rect x="214.0" y="314.0" width="36.0" height="36.0" fill="#6f855f"/><rect x="254.0" y="314.0" width="36.0" height="36.0" fill="#5e7355"/><rect x="294.0" y="314.0" width="36.0" height="36.0" fill="#6f855f"/><rect x="334.0" y="314.0" width="36.0" height="36.0" fill="#5e7355"/><rect x="374.0" y="314.0" width="36.0" height="36.0" fill="#8aa072"/><rect x="414.0" y="314.0" width="36.0" height="36.0" fill="#6f855f"/><rect x="454.0" y="314.0" width="36.0" height="36.0" fill="#5e7355"/><rect x="494.0" y="314.0" width="36.0" height="36.0" fill="#6f855f"/><rect x="534.0" y="314.0" width="36.0" height="36.0" fill="#5e7355"/><rect x="574.0" y="314.0" width="36.0" height="36.0" fill="#5e7355"/><rect x="614.0" y="314.0" width="36.0" height="36.0" fill="#8aa072"/><rect x="654.0" y="314.0" width="36.0" height="36.0" fill="#5e7355"/><rect x="694.0" y="314.0" width="36.0" height="36.0" fill="#3f4f39"/><rect x="734.0" y="314.0" width="36.0" height="36.0" fill="#5e7355"/><rect x="774.0" y="314.0" width="36.0" height="36.0" fill="#5e7355"/><rect x="814.0" y="314.0" width="36.0" height="36.0" fill="#6f855f"/><rect x="854.0" y="314.0" width="36.0" height="36.0" fill="#8aa072"/><rect x="894.0" y="314.0" width="36.0" height="36.0" fill="#6f855f"/><rect x="934.0" y="314.0" width="36.0" height="36.0" fill="#5e7355"/><rect x="974.0" y="314.0" width="36.0" height="36.0" fill="#5e7355"/><rect x="1014.0" y="314.0" width="36.0" height="36.0" fill="#6f855f"/><rect x="1054.0" y="314.0" width="36.0" height="36.0" fill="#5e7355"/><rect x="1094.0" y="314.0" width="36.0" height="36.0" fill="#8aa072"/><rect x="14.0" y="354.0" width="36.0" height="36.0" fill="#8aa072"/><rect x="54.0" y="354.0" width="36.0" height="36.0" fill="#6f855f"/><rect x="94.0" y="354.0" width="36.0" height="36.0" fill="#5e7355"/><rect x="134.0" y="354.0" width="36.0" height="36.0" fill="#6f855f"/><rect x="174.0" y="354.0" width="36.0" height="36.0" fill="#5e7355"/><rect x="214.0" y="354.0" width="36.0" height="36.0" fill="#5e7355"/><rect x="254.0" y="354.0" width="36.0" height="36.0" fill="#8aa072"/><rect x="294.0" y="354.0" width="36.0" height="36.0" fill="#5e7355"/><rect x="334.0" y="354.0" width="36.0" height="36.0" fill="#6f855f"/><rect x="374.0" y="354.0" width="36.0" height="36.0" fill="#5e7355"/><rect x="414.0" y="354.0" width="36.0" height="36.0" fill="#3f4f39"/><rect x="454.0" y="354.0" width="36.0" height="36.0" fill="#6f855f"/><rect x="494.0" y="354.0" width="36.0" height="36.0" fill="#8aa072"/><rect x="534.0" y="354.0" width="36.0" height="36.0" fill="#6f855f"/><rect x="574.0" y="354.0" width="36.0" height="36.0" fill="#5e7355"/><rect x="614.0" y="354.0" width="36.0" height="36.0" fill="#5a3f29"/><rect x="654.0" y="354.0" width="36.0" height="36.0" fill="#5a3f29"/><rect x="694.0" y="354.0" width="36.0" height="36.0" fill="#7a5536"/><rect x="734.0" y="354.0" width="36.0" height="36.0" fill="#8aa072"/><rect x="774.0" y="354.0" width="36.0" height="36.0" fill="#5e7355"/><rect x="814.0" y="354.0" width="36.0" height="36.0" fill="#5e7355"/><rect x="854.0" y="354.0" width="36.0" height="36.0" fill="#6f855f"/><rect x="894.0" y="354.0" width="36.0" height="36.0" fill="#5e7355"/><rect x="934.0" y="354.0" width="36.0" height="36.0" fill="#3f4f39"/><rect x="974.0" y="354.0" width="36.0" height="36.0" fill="#8aa072"/><rect x="1014.0" y="354.0" width="36.0" height="36.0" fill="#5e7355"/><rect x="1054.0" y="354.0" width="36.0" height="36.0" fill="#6f855f"/><rect x="1094.0" y="354.0" width="36.0" height="36.0" fill="#5e7355"/><rect x="14.0" y="394.0" width="36.0" height="36.0" fill="#5e7355"/><rect x="54.0" y="394.0" width="36.0" height="36.0" fill="#5e7355"/><rect x="94.0" y="394.0" width="36.0" height="36.0" fill="#6f855f"/><rect x="134.0" y="394.0" width="36.0" height="36.0" fill="#3f4f39"/><rect x="174.0" y="394.0" width="36.0" height="36.0" fill="#6f855f"/><rect x="214.0" y="394.0" width="36.0" height="36.0" fill="#5e7355"/><rect x="254.0" y="394.0" width="36.0" height="36.0" fill="#5e7355"/><rect x="294.0" y="394.0" width="36.0" height="36.0" fill="#6f855f"/><rect x="334.0" y="394.0" width="36.0" height="36.0" fill="#5e7355"/><rect x="374.0" y="394.0" width="36.0" height="36.0" fill="#8aa072"/><rect x="414.0" y="394.0" width="36.0" height="36.0" fill="#5e7355"/><rect x="454.0" y="394.0" width="36.0" height="36.0" fill="#5e7355"/><rect x="494.0" y="394.0" width="36.0" height="36.0" fill="#6f855f"/><rect x="534.0" y="394.0" width="36.0" height="36.0" fill="#5e7355"/><rect x="574.0" y="394.0" width="36.0" height="36.0" fill="#6f855f"/><rect x="614.0" y="394.0" width="36.0" height="36.0" fill="#5a3f29"/><rect x="654.0" y="394.0" width="36.0" height="36.0" fill="#5a3f29"/><rect x="694.0" y="394.0" width="36.0" height="36.0" fill="#7a5536"/><rect x="734.0" y="394.0" width="36.0" height="36.0" fill="#5e7355"/><rect x="774.0" y="394.0" width="36.0" height="36.0" fill="#6f855f"/><rect x="814.0" y="394.0" width="36.0" height="36.0" fill="#5e7355"/><rect x="854.0" y="394.0" width="36.0" height="36.0" fill="#8aa072"/><rect x="894.0" y="394.0" width="36.0" height="36.0" fill="#6f855f"/><rect x="934.0" y="394.0" width="36.0" height="36.0" fill="#5e7355"/><rect x="974.0" y="394.0" width="36.0" height="36.0" fill="#6f855f"/><rect x="1014.0" y="394.0" width="36.0" height="36.0" fill="#5e7355"/><rect x="1054.0" y="394.0" width="36.0" height="36.0" fill="#5e7355"/><rect x="1094.0" y="394.0" width="36.0" height="36.0" fill="#8aa072"/><rect x="14.0" y="434.0" width="36.0" height="36.0" fill="#8aa072"/><rect x="54.0" y="434.0" width="36.0" height="36.0" fill="#5e7355"/><rect x="94.0" y="434.0" width="36.0" height="36.0" fill="#5e7355"/><rect x="134.0" y="434.0" width="36.0" height="36.0" fill="#6f855f"/><rect x="174.0" y="434.0" width="36.0" height="36.0" fill="#5e7355"/><rect x="214.0" y="434.0" width="36.0" height="36.0" fill="#6f855f"/><rect x="254.0" y="434.0" width="36.0" height="36.0" fill="#8aa072"/><rect x="294.0" y="434.0" width="36.0" height="36.0" fill="#5e7355"/><rect x="334.0" y="434.0" width="36.0" height="36.0" fill="#6f855f"/><rect x="374.0" y="434.0" width="36.0" height="36.0" fill="#3f4f39"/><rect x="414.0" y="434.0" width="36.0" height="36.0" fill="#6f855f"/><rect x="454.0" y="434.0" width="36.0" height="36.0" fill="#5e7355"/><rect x="494.0" y="434.0" width="36.0" height="36.0" fill="#8aa072"/><rect x="534.0" y="434.0" width="36.0" height="36.0" fill="#6f855f"/><rect x="574.0" y="434.0" width="36.0" height="36.0" fill="#5e7355"/><rect x="614.0" y="434.0" width="36.0" height="36.0" fill="#5a3f29"/><rect x="654.0" y="434.0" width="36.0" height="36.0" fill="#5a3f29"/><rect x="694.0" y="434.0" width="36.0" height="36.0" fill="#7a5536"/><rect x="734.0" y="434.0" width="36.0" height="36.0" fill="#8aa072"/><rect x="774.0" y="434.0" width="36.0" height="36.0" fill="#5e7355"/><rect x="814.0" y="434.0" width="36.0" height="36.0" fill="#6f855f"/><rect x="854.0" y="434.0" width="36.0" height="36.0" fill="#5e7355"/><rect x="894.0" y="434.0" width="36.0" height="36.0" fill="#3f4f39"/><rect x="934.0" y="434.0" width="36.0" height="36.0" fill="#6f855f"/><rect x="974.0" y="434.0" width="36.0" height="36.0" fill="#8aa072"/><rect x="1014.0" y="434.0" width="36.0" height="36.0" fill="#6f855f"/><rect x="1054.0" y="434.0" width="36.0" height="36.0" fill="#5e7355"/><rect x="1094.0" y="434.0" width="36.0" height="36.0" fill="#5e7355"/><rect x="54.0" y="474.0" width="36.0" height="36.0" fill="#8aa072"/><rect x="94.0" y="474.0" width="36.0" height="36.0" fill="#8aa072"/><rect x="134.0" y="474.0" width="36.0" height="36.0" fill="#5e7355"/><rect x="174.0" y="474.0" width="36.0" height="36.0" fill="#5e7355"/><rect x="214.0" y="474.0" width="36.0" height="36.0" fill="#5e7355"/><rect x="254.0" y="474.0" width="36.0" height="36.0" fill="#5e7355"/><rect x="294.0" y="474.0" width="36.0" height="36.0" fill="#5e7355"/><rect x="334.0" y="474.0" width="36.0" height="36.0" fill="#5e7355"/><rect x="374.0" y="474.0" width="36.0" height="36.0" fill="#5e7355"/><rect x="414.0" y="474.0" width="36.0" height="36.0" fill="#5e7355"/><rect x="454.0" y="474.0" width="36.0" height="36.0" fill="#5e7355"/><rect x="494.0" y="474.0" width="36.0" height="36.0" fill="#5e7355"/><rect x="534.0" y="474.0" width="36.0" height="36.0" fill="#5e7355"/><rect x="574.0" y="474.0" width="36.0" height="36.0" fill="#5a3f29"/><rect x="614.0" y="474.0" width="36.0" height="36.0" fill="#5a3f29"/><rect x="654.0" y="474.0" width="36.0" height="36.0" fill="#7a5536"/><rect x="694.0" y="474.0" width="36.0" height="36.0" fill="#5e7355"/><rect x="734.0" y="474.0" width="36.0" height="36.0" fill="#5e7355"/><rect x="774.0" y="474.0" width="36.0" height="36.0" fill="#5e7355"/><rect x="814.0" y="474.0" width="36.0" height="36.0" fill="#5e7355"/><rect x="854.0" y="474.0" width="36.0" height="36.0" fill="#5e7355"/><rect x="894.0" y="474.0" width="36.0" height="36.0" fill="#5e7355"/><rect x="934.0" y="474.0" width="36.0" height="36.0" fill="#5e7355"/><rect x="974.0" y="474.0" width="36.0" height="36.0" fill="#5e7355"/><rect x="1014.0" y="474.0" width="36.0" height="36.0" fill="#5e7355"/><rect x="1054.0" y="474.0" width="36.0" height="36.0" fill="#5e7355"/><rect x="1094.0" y="474.0" width="36.0" height="36.0" fill="#5e7355"/><rect x="1134.0" y="474.0" width="36.0" height="36.0" fill="#5e7355"/><rect x="54.0" y="514.0" width="36.0" height="36.0" fill="#8aa072"/><rect x="134.0" y="514.0" width="36.0" height="36.0" fill="#5e7355"/><rect x="174.0" y="514.0" width="36.0" height="36.0" fill="#5e7355"/><rect x="214.0" y="514.0" width="36.0" height="36.0" fill="#5e7355"/><rect x="254.0" y="514.0" width="36.0" height="36.0" fill="#8aa072"/><rect x="294.0" y="514.0" width="36.0" height="36.0" fill="#5e7355"/><rect x="334.0" y="514.0" width="36.0" height="36.0" fill="#5e7355"/><rect x="374.0" y="514.0" width="36.0" height="36.0" fill="#5e7355"/><rect x="414.0" y="514.0" width="36.0" height="36.0" fill="#5e7355"/><rect x="454.0" y="514.0" width="36.0" height="36.0" fill="#5e7355"/><rect x="494.0" y="514.0" width="36.0" height="36.0" fill="#5e7355"/><rect x="534.0" y="514.0" width="36.0" height="36.0" fill="#5e7355"/><rect x="574.0" y="514.0" width="36.0" height="36.0" fill="#5a3f29"/><rect x="614.0" y="514.0" width="36.0" height="36.0" fill="#5a3f29"/><rect x="654.0" y="514.0" width="36.0" height="36.0" fill="#7a5536"/><rect x="694.0" y="514.0" width="36.0" height="36.0" fill="#5e7355"/><rect x="734.0" y="514.0" width="36.0" height="36.0" fill="#5e7355"/><rect x="774.0" y="514.0" width="36.0" height="36.0" fill="#5e7355"/><rect x="814.0" y="514.0" width="36.0" height="36.0" fill="#5e7355"/><rect x="854.0" y="514.0" width="36.0" height="36.0" fill="#5e7355"/><rect x="894.0" y="514.0" width="36.0" height="36.0" fill="#5e7355"/><rect x="934.0" y="514.0" width="36.0" height="36.0" fill="#5e7355"/><rect x="974.0" y="514.0" width="36.0" height="36.0" fill="#5e7355"/><rect x="1014.0" y="514.0" width="36.0" height="36.0" fill="#5e7355"/><rect x="1054.0" y="514.0" width="36.0" height="36.0" fill="#5e7355"/><rect x="1094.0" y="514.0" width="36.0" height="36.0" fill="#5e7355"/><rect x="1134.0" y="514.0" width="36.0" height="36.0" fill="#8aa072"/><rect x="174.0" y="554.0" width="36.0" height="36.0" fill="#8aa072"/><rect x="214.0" y="554.0" width="36.0" height="36.0" fill="#6f855f"/><rect x="254.0" y="554.0" width="36.0" height="36.0" fill="#6f855f"/><rect x="294.0" y="554.0" width="36.0" height="36.0" fill="#8aa072"/><rect x="334.0" y="554.0" width="36.0" height="36.0" fill="#6f855f"/><rect x="374.0" y="554.0" width="36.0" height="36.0" fill="#6f855f"/><rect x="414.0" y="554.0" width="36.0" height="36.0" fill="#6f855f"/><rect x="454.0" y="554.0" width="36.0" height="36.0" fill="#6f855f"/><rect x="494.0" y="554.0" width="36.0" height="36.0" fill="#6f855f"/><rect x="534.0" y="554.0" width="36.0" height="36.0" fill="#6f855f"/><rect x="574.0" y="554.0" width="36.0" height="36.0" fill="#5a3f29"/><rect x="614.0" y="554.0" width="36.0" height="36.0" fill="#5a3f29"/><rect x="654.0" y="554.0" width="36.0" height="36.0" fill="#7a5536"/><rect x="694.0" y="554.0" width="36.0" height="36.0" fill="#6f855f"/><rect x="734.0" y="554.0" width="36.0" height="36.0" fill="#6f855f"/><rect x="774.0" y="554.0" width="36.0" height="36.0" fill="#6f855f"/><rect x="814.0" y="554.0" width="36.0" height="36.0" fill="#6f855f"/><rect x="854.0" y="554.0" width="36.0" height="36.0" fill="#6f855f"/><rect x="894.0" y="554.0" width="36.0" height="36.0" fill="#6f855f"/><rect x="934.0" y="554.0" width="36.0" height="36.0" fill="#6f855f"/><rect x="974.0" y="554.0" width="36.0" height="36.0" fill="#6f855f"/><rect x="1014.0" y="554.0" width="36.0" height="36.0" fill="#6f855f"/><rect x="1054.0" y="554.0" width="36.0" height="36.0" fill="#6f855f"/><rect x="1094.0" y="554.0" width="36.0" height="36.0" fill="#8aa072"/><rect x="1134.0" y="554.0" width="36.0" height="36.0" fill="#6f855f"/><rect x="174.0" y="594.0" width="36.0" height="36.0" fill="#8aa072"/><rect x="214.0" y="594.0" width="36.0" height="36.0" fill="#8aa072"/><rect x="254.0" y="594.0" width="36.0" height="36.0" fill="#8aa072"/><rect x="334.0" y="594.0" width="36.0" height="36.0" fill="#5e7355"/><rect x="374.0" y="594.0" width="36.0" height="36.0" fill="#5e7355"/><rect x="414.0" y="594.0" width="36.0" height="36.0" fill="#5e7355"/><rect x="454.0" y="594.0" width="36.0" height="36.0" fill="#8aa072"/><rect x="494.0" y="594.0" width="36.0" height="36.0" fill="#5e7355"/><rect x="534.0" y="594.0" width="36.0" height="36.0" fill="#5e7355"/><rect x="574.0" y="594.0" width="36.0" height="36.0" fill="#5a3f29"/><rect x="614.0" y="594.0" width="36.0" height="36.0" fill="#5a3f29"/><rect x="654.0" y="594.0" width="36.0" height="36.0" fill="#7a5536"/><rect x="694.0" y="594.0" width="36.0" height="36.0" fill="#5e7355"/><rect x="734.0" y="594.0" width="36.0" height="36.0" fill="#5e7355"/><rect x="774.0" y="594.0" width="36.0" height="36.0" fill="#5e7355"/><rect x="814.0" y="594.0" width="36.0" height="36.0" fill="#5e7355"/><rect x="854.0" y="594.0" width="36.0" height="36.0" fill="#5e7355"/><rect x="894.0" y="594.0" width="36.0" height="36.0" fill="#5e7355"/><rect x="934.0" y="594.0" width="36.0" height="36.0" fill="#5e7355"/><rect x="974.0" y="594.0" width="36.0" height="36.0" fill="#5e7355"/><rect x="1014.0" y="594.0" width="36.0" height="36.0" fill="#5e7355"/><rect x="1054.0" y="594.0" width="36.0" height="36.0" fill="#5e7355"/><rect x="1094.0" y="594.0" width="36.0" height="36.0" fill="#8aa072"/><rect x="1134.0" y="594.0" width="36.0" height="36.0" fill="#5e7355"/><rect x="254.0" y="634.0" width="36.0" height="36.0" fill="#8aa072"/><rect x="294.0" y="634.0" width="36.0" height="36.0" fill="#8aa072"/><rect x="374.0" y="634.0" width="36.0" height="36.0" fill="#5e7355"/><rect x="414.0" y="634.0" width="36.0" height="36.0" fill="#5e7355"/><rect x="454.0" y="634.0" width="36.0" height="36.0" fill="#5e7355"/><rect x="494.0" y="634.0" width="36.0" height="36.0" fill="#8aa072"/><rect x="534.0" y="634.0" width="36.0" height="36.0" fill="#5e7355"/><rect x="574.0" y="634.0" width="36.0" height="36.0" fill="#5a3f29"/><rect x="614.0" y="634.0" width="36.0" height="36.0" fill="#5a3f29"/><rect x="654.0" y="634.0" width="36.0" height="36.0" fill="#7a5536"/><rect x="694.0" y="634.0" width="36.0" height="36.0" fill="#5e7355"/><rect x="734.0" y="634.0" width="36.0" height="36.0" fill="#5e7355"/><rect x="774.0" y="634.0" width="36.0" height="36.0" fill="#5e7355"/><rect x="814.0" y="634.0" width="36.0" height="36.0" fill="#5e7355"/><rect x="854.0" y="634.0" width="36.0" height="36.0" fill="#5e7355"/><rect x="894.0" y="634.0" width="36.0" height="36.0" fill="#5e7355"/><rect x="934.0" y="634.0" width="36.0" height="36.0" fill="#5e7355"/><rect x="974.0" y="634.0" width="36.0" height="36.0" fill="#5e7355"/><rect x="1014.0" y="634.0" width="36.0" height="36.0" fill="#5e7355"/><rect x="1054.0" y="634.0" width="36.0" height="36.0" fill="#5e7355"/><rect x="1094.0" y="634.0" width="36.0" height="36.0" fill="#5e7355"/><rect x="374.0" y="674.0" width="36.0" height="36.0" fill="#8aa072"/><rect x="414.0" y="674.0" width="36.0" height="36.0" fill="#8aa072"/><rect x="454.0" y="674.0" width="36.0" height="36.0" fill="#6f855f"/><rect x="534.0" y="674.0" width="36.0" height="36.0" fill="#5a3f29"/><rect x="574.0" y="674.0" width="36.0" height="36.0" fill="#5a3f29"/><rect x="614.0" y="674.0" width="36.0" height="36.0" fill="#7a5536"/><rect x="654.0" y="674.0" width="36.0" height="36.0" fill="#8aa072"/><rect x="694.0" y="674.0" width="36.0" height="36.0" fill="#6f855f"/><rect x="734.0" y="674.0" width="36.0" height="36.0" fill="#6f855f"/><rect x="774.0" y="674.0" width="36.0" height="36.0" fill="#6f855f"/><rect x="814.0" y="674.0" width="36.0" height="36.0" fill="#6f855f"/><rect x="854.0" y="674.0" width="36.0" height="36.0" fill="#6f855f"/><rect x="894.0" y="674.0" width="36.0" height="36.0" fill="#6f855f"/><rect x="934.0" y="674.0" width="36.0" height="36.0" fill="#6f855f"/><rect x="974.0" y="674.0" width="36.0" height="36.0" fill="#8aa072"/><rect x="1014.0" y="674.0" width="36.0" height="36.0" fill="#6f855f"/><rect x="1054.0" y="674.0" width="36.0" height="36.0" fill="#6f855f"/><rect x="1094.0" y="674.0" width="36.0" height="36.0" fill="#6f855f"/><rect x="414.0" y="714.0" width="36.0" height="36.0" fill="#8aa072"/><rect x="454.0" y="714.0" width="36.0" height="36.0" fill="#8aa072"/><rect x="494.0" y="714.0" width="36.0" height="36.0" fill="#8aa072"/><rect x="534.0" y="714.0" width="36.0" height="36.0" fill="#5a3f29"/><rect x="574.0" y="714.0" width="36.0" height="36.0" fill="#5a3f29"/><rect x="614.0" y="714.0" width="36.0" height="36.0" fill="#7a5536"/><rect x="654.0" y="714.0" width="36.0" height="36.0" fill="#5e7355"/><rect x="694.0" y="714.0" width="36.0" height="36.0" fill="#8aa072"/><rect x="734.0" y="714.0" width="36.0" height="36.0" fill="#5e7355"/><rect x="774.0" y="714.0" width="36.0" height="36.0" fill="#5e7355"/><rect x="814.0" y="714.0" width="36.0" height="36.0" fill="#5e7355"/><rect x="854.0" y="714.0" width="36.0" height="36.0" fill="#8aa072"/><rect x="894.0" y="714.0" width="36.0" height="36.0" fill="#5e7355"/><rect x="934.0" y="714.0" width="36.0" height="36.0" fill="#5e7355"/><rect x="974.0" y="714.0" width="36.0" height="36.0" fill="#5e7355"/><rect x="1014.0" y="714.0" width="36.0" height="36.0" fill="#8aa072"/><rect x="1054.0" y="714.0" width="36.0" height="36.0" fill="#5e7355"/><rect x="1094.0" y="714.0" width="36.0" height="36.0" fill="#5e7355"/><rect x="1134.0" y="714.0" width="36.0" height="36.0" fill="#8aa072"/><rect x="494.0" y="754.0" width="36.0" height="36.0" fill="#8aa072"/><rect x="534.0" y="754.0" width="36.0" height="36.0" fill="#5a3f29"/><rect x="574.0" y="754.0" width="36.0" height="36.0" fill="#5a3f29"/><rect x="614.0" y="754.0" width="36.0" height="36.0" fill="#7a5536"/><rect x="654.0" y="754.0" width="36.0" height="36.0" fill="#5e7355"/><rect x="734.0" y="754.0" width="36.0" height="36.0" fill="#5e7355"/><rect x="774.0" y="754.0" width="36.0" height="36.0" fill="#5e7355"/><rect x="814.0" y="754.0" width="36.0" height="36.0" fill="#5e7355"/><rect x="854.0" y="754.0" width="36.0" height="36.0" fill="#8aa072"/><rect x="894.0" y="754.0" width="36.0" height="36.0" fill="#5e7355"/><rect x="934.0" y="754.0" width="36.0" height="36.0" fill="#5e7355"/><rect x="974.0" y="754.0" width="36.0" height="36.0" fill="#5e7355"/><rect x="1054.0" y="754.0" width="36.0" height="36.0" fill="#5e7355"/><rect x="1094.0" y="754.0" width="36.0" height="36.0" fill="#8aa072"/><rect x="1134.0" y="754.0" width="36.0" height="36.0" fill="#8aa072"/><rect x="534.0" y="794.0" width="36.0" height="36.0" fill="#5a3f29"/><rect x="574.0" y="794.0" width="36.0" height="36.0" fill="#5a3f29"/><rect x="614.0" y="794.0" width="36.0" height="36.0" fill="#7a5536"/><rect x="654.0" y="794.0" width="36.0" height="36.0" fill="#8aa072"/><rect x="694.0" y="794.0" width="36.0" height="36.0" fill="#8aa072"/><rect x="774.0" y="794.0" width="36.0" height="36.0" fill="#8aa072"/><rect x="814.0" y="794.0" width="36.0" height="36.0" fill="#8aa072"/><rect x="854.0" y="794.0" width="36.0" height="36.0" fill="#6f855f"/><rect x="934.0" y="794.0" width="36.0" height="36.0" fill="#6f855f"/><rect x="974.0" y="794.0" width="36.0" height="36.0" fill="#6f855f"/><rect x="1014.0" y="794.0" width="36.0" height="36.0" fill="#8aa072"/><rect x="1094.0" y="794.0" width="36.0" height="36.0" fill="#8aa072"/><rect x="1134.0" y="794.0" width="36.0" height="36.0" fill="#8aa072"/><rect x="534.0" y="834.0" width="36.0" height="36.0" fill="#5a3f29"/><rect x="574.0" y="834.0" width="36.0" height="36.0" fill="#5a3f29"/><rect x="614.0" y="834.0" width="36.0" height="36.0" fill="#7a5536"/><rect x="734.0" y="834.0" width="36.0" height="36.0" fill="#8aa072"/><rect x="814.0" y="834.0" width="36.0" height="36.0" fill="#8aa072"/><rect x="854.0" y="834.0" width="36.0" height="36.0" fill="#8aa072"/><rect x="894.0" y="834.0" width="36.0" height="36.0" fill="#8aa072"/><rect x="974.0" y="834.0" width="36.0" height="36.0" fill="#8aa072"/><rect x="1014.0" y="834.0" width="36.0" height="36.0" fill="#8aa072"/><rect x="1054.0" y="834.0" width="36.0" height="36.0" fill="#8aa072"/><rect x="1134.0" y="834.0" width="36.0" height="36.0" fill="#8aa072"/><rect x="534.0" y="874.0" width="36.0" height="36.0" fill="#5a3f29"/><rect x="574.0" y="874.0" width="36.0" height="36.0" fill="#5a3f29"/><rect x="614.0" y="874.0" width="36.0" height="36.0" fill="#7a5536"/><rect x="894.0" y="874.0" width="36.0" height="36.0" fill="#8aa072"/><rect x="974.0" y="874.0" width="36.0" height="36.0" fill="#8aa072"/><rect x="1014.0" y="874.0" width="36.0" height="36.0" fill="#8aa072"/><rect x="494.0" y="914.0" width="36.0" height="36.0" fill="#5a3f29"/><rect x="534.0" y="914.0" width="36.0" height="36.0" fill="#5a3f29"/><rect x="574.0" y="914.0" width="36.0" height="36.0" fill="#7a5536"/><rect x="494.0" y="954.0" width="36.0" height="36.0" fill="#5a3f29"/><rect x="534.0" y="954.0" width="36.0" height="36.0" fill="#5a3f29"/><rect x="574.0" y="954.0" width="36.0" height="36.0" fill="#7a5536"/><rect x="494.0" y="994.0" width="36.0" height="36.0" fill="#5a3f29"/><rect x="534.0" y="994.0" width="36.0" height="36.0" fill="#5a3f29"/><rect x="574.0" y="994.0" width="36.0" height="36.0" fill="#7a5536"/><rect x="414.0" y="1034.0" width="36.0" height="36.0" fill="#5a3f29"/><rect x="454.0" y="1034.0" width="36.0" height="36.0" fill="#7a5536"/><rect x="494.0" y="1034.0" width="36.0" height="36.0" fill="#5a3f29"/><rect x="534.0" y="1034.0" width="36.0" height="36.0" fill="#7a5536"/><rect x="574.0" y="1034.0" width="36.0" height="36.0" fill="#5a3f29"/><rect x="614.0" y="1034.0" width="36.0" height="36.0" fill="#7a5536"/><rect x="654.0" y="1034.0" width="36.0" height="36.0" fill="#5a3f29"/></svg>